<svg width="672" height="525" viewBox="0 0 672 525" fill="none" xmlns="http://www.w3.org/2000/svg">
<rect width="14.2736" height="10.6964" rx="2" transform="matrix(-1 -1.74846e-07 -1.74846e-07 1 93.3149 67)" fill="#EDEDED"/>
<rect width="9.9915" height="2.13928" rx="1.06964" transform="matrix(-1 -1.74846e-07 -1.74846e-07 1 91.1738 78.4092)" fill="#EDEDED"/>
<rect width="14.2736" height="10.6964" rx="2" transform="matrix(-1 -1.74846e-07 -1.74846e-07 1 119.588 67)" fill="#EDEDED"/>
<rect width="9.9915" height="2.13928" rx="1.06964" transform="matrix(-1 -1.74846e-07 -1.74846e-07 1 117.447 78.4092)" fill="#EDEDED"/>
<rect width="14.2736" height="10.6964" rx="2" transform="matrix(-1 -1.74846e-07 -1.74846e-07 1 172.136 67)" fill="#EEBC00"/>
<rect width="9.9915" height="2.13928" rx="1.06964" transform="matrix(-1 -1.74846e-07 -1.74846e-07 1 169.995 78.4092)" fill="#EEBC00"/>
<rect width="14.2736" height="10.6964" rx="2" transform="matrix(-1 -1.74846e-07 -1.74846e-07 1 198.409 67)" fill="#EEBC00"/>
<rect width="9.9915" height="2.13928" rx="1.06964" transform="matrix(-1 -1.74846e-07 -1.74846e-07 1 196.268 78.4092)" fill="#EEBC00"/>
<rect width="14.2736" height="10.6964" rx="2" transform="matrix(-1 -1.74846e-07 -1.74846e-07 1 224.683 67)" fill="#EDEDED"/>
<rect width="9.9915" height="2.13928" rx="1.06964" transform="matrix(-1 -1.74846e-07 -1.74846e-07 1 222.542 78.4092)" fill="#EDEDED"/>
<rect width="14.2736" height="10.6964" rx="2" transform="matrix(-1 -1.74846e-07 -1.74846e-07 1 250.957 67)" fill="#EDEDED"/>
<rect width="9.9915" height="2.13928" rx="1.06964" transform="matrix(-1 -1.74846e-07 -1.74846e-07 1 248.815 78.4092)" fill="#EDEDED"/>
<rect width="14.2736" height="10.6964" rx="2" transform="matrix(-1 -1.74846e-07 -1.74846e-07 1 277.23 67)" fill="#EEBC00"/>
<rect width="9.9915" height="2.13928" rx="1.06964" transform="matrix(-1 -1.74846e-07 -1.74846e-07 1 275.089 78.4092)" fill="#EEBC00"/>
<rect width="14.2736" height="10.6964" rx="2" transform="matrix(-1 -1.74846e-07 -1.74846e-07 1 303.503 67)" fill="#EEBC00"/>
<rect width="9.9915" height="2.13928" rx="1.06964" transform="matrix(-1 -1.74846e-07 -1.74846e-07 1 301.362 78.4092)" fill="#EEBC00"/>
<rect width="14.2736" height="10.6964" rx="2" transform="matrix(-1 -1.74846e-07 -1.74846e-07 1 329.777 67)" fill="#EDEDED"/>
<rect width="9.9915" height="2.13928" rx="1.06964" transform="matrix(-1 -1.74846e-07 -1.74846e-07 1 327.636 78.4092)" fill="#EDEDED"/>
<rect width="14.2736" height="10.6964" rx="2" transform="matrix(-1 -1.74846e-07 -1.74846e-07 1 356.051 67)" fill="#EDEDED"/>
<rect width="9.9915" height="2.13928" rx="1.06964" transform="matrix(-1 -1.74846e-07 -1.74846e-07 1 353.91 78.4092)" fill="#EDEDED"/>
<rect width="14.2736" height="10.6964" rx="2" transform="matrix(-1 -1.74846e-07 -1.74846e-07 1 382.324 67)" fill="#EEBC00"/>
<rect width="9.9915" height="2.13928" rx="1.06964" transform="matrix(-1 -1.74846e-07 -1.74846e-07 1 380.183 78.4092)" fill="#EEBC00"/>
<rect width="14.2736" height="10.6964" rx="2" transform="matrix(-1 -1.74846e-07 -1.74846e-07 1 408.598 67)" fill="#EEBC00"/>
<rect width="9.9915" height="2.13928" rx="1.06964" transform="matrix(-1 -1.74846e-07 -1.74846e-07 1 406.457 78.4092)" fill="#EEBC00"/>
<rect width="14.2736" height="10.6964" rx="2" transform="matrix(-1 -1.74846e-07 -1.74846e-07 1 434.872 67)" fill="#EDEDED"/>
<rect width="9.9915" height="2.13928" rx="1.06964" transform="matrix(-1 -1.74846e-07 -1.74846e-07 1 432.73 78.4092)" fill="#EDEDED"/>
<rect width="14.2736" height="10.6964" rx="2" transform="matrix(-1 -1.74846e-07 -1.74846e-07 1 461.145 67)" fill="#EDEDED"/>
<rect width="9.9915" height="2.13928" rx="1.06964" transform="matrix(-1 -1.74846e-07 -1.74846e-07 1 459.004 78.4092)" fill="#EDEDED"/>
<rect width="14.2736" height="10.6964" rx="2" transform="matrix(-1 -1.74846e-07 -1.74846e-07 1 487.418 67)" fill="#EEBC00"/>
<rect width="9.9915" height="2.13928" rx="1.06964" transform="matrix(-1 -1.74846e-07 -1.74846e-07 1 485.277 78.4092)" fill="#EEBC00"/>
<rect width="14.2736" height="10.6964" rx="2" transform="matrix(-1 -1.74846e-07 -1.74846e-07 1 513.692 67)" fill="#EEBC00"/>
<rect width="9.9915" height="2.13928" rx="1.06964" transform="matrix(-1 -1.74846e-07 -1.74846e-07 1 511.551 78.4092)" fill="#EEBC00"/>
<rect width="14.2736" height="10.6964" rx="2" transform="matrix(-1 -1.74846e-07 -1.74846e-07 1 566.239 67)" fill="#EDEDED"/>
<rect width="9.9915" height="2.13928" rx="1.06964" transform="matrix(-1 -1.74846e-07 -1.74846e-07 1 564.098 78.4092)" fill="#EDEDED"/>
<rect width="14.2736" height="10.6964" rx="2" transform="matrix(-1 -1.74846e-07 -1.74846e-07 1 592.513 67)" fill="#EDEDED"/>
<rect width="9.9915" height="2.13928" rx="1.06964" transform="matrix(-1 -1.74846e-07 -1.74846e-07 1 590.372 78.4092)" fill="#EDEDED"/>
<rect width="14.2736" height="10.6964" rx="2" transform="matrix(-1 -1.74846e-07 -1.74846e-07 1 40.7681 98.5488)" fill="#EEBC00"/>
<rect width="9.9915" height="2.13928" rx="1.06964" transform="matrix(-1 -1.74846e-07 -1.74846e-07 1 38.627 109.958)" fill="#EEBC00"/>
<rect width="14.2736" height="10.6964" rx="2" transform="matrix(-1 -1.74846e-07 -1.74846e-07 1 67.0415 98.5488)" fill="#EDEDED"/>
<rect width="9.9915" height="2.13928" rx="1.06964" transform="matrix(-1 -1.74846e-07 -1.74846e-07 1 64.9004 109.958)" fill="#EDEDED"/>
<rect width="14.2736" height="10.6964" rx="2" transform="matrix(-1 -1.74846e-07 -1.74846e-07 1 93.3149 98.5488)" fill="#EEBC00"/>
<rect width="9.9915" height="2.13928" rx="1.06964" transform="matrix(-1 -1.74846e-07 -1.74846e-07 1 91.1738 109.958)" fill="#EEBC00"/>
<rect width="14.2736" height="10.6964" rx="2" transform="matrix(-1 -1.74846e-07 -1.74846e-07 1 119.588 98.5488)" fill="#EDEDED"/>
<rect width="9.9915" height="2.13928" rx="1.06964" transform="matrix(-1 -1.74846e-07 -1.74846e-07 1 117.447 109.958)" fill="#EDEDED"/>
<rect width="14.2736" height="10.6964" rx="2" transform="matrix(-1 -1.74846e-07 -1.74846e-07 1 172.136 98.5488)" fill="#EDEDED"/>
<rect width="9.9915" height="2.13928" rx="1.06964" transform="matrix(-1 -1.74846e-07 -1.74846e-07 1 169.995 109.958)" fill="#EDEDED"/>
<rect width="14.2736" height="10.6964" rx="2" transform="matrix(-1 -1.74846e-07 -1.74846e-07 1 198.409 98.5488)" fill="#EDEDED"/>
<rect width="9.9915" height="2.13928" rx="1.06964" transform="matrix(-1 -1.74846e-07 -1.74846e-07 1 196.268 109.958)" fill="#EDEDED"/>
<rect width="14.2736" height="10.6964" rx="2" transform="matrix(-1 -1.74846e-07 -1.74846e-07 1 224.683 98.5488)" fill="#EEBC00"/>
<rect width="9.9915" height="2.13928" rx="1.06964" transform="matrix(-1 -1.74846e-07 -1.74846e-07 1 222.542 109.958)" fill="#EEBC00"/>
<rect width="14.2736" height="10.6964" rx="2" transform="matrix(-1 -1.74846e-07 -1.74846e-07 1 250.957 98.5488)" fill="#EEBC00"/>
<rect width="9.9915" height="2.13928" rx="1.06964" transform="matrix(-1 -1.74846e-07 -1.74846e-07 1 248.815 109.958)" fill="#EEBC00"/>
<rect width="14.2736" height="10.6964" rx="2" transform="matrix(-1 -1.74846e-07 -1.74846e-07 1 277.23 98.5488)" fill="#EDEDED"/>
<rect width="9.9915" height="2.13928" rx="1.06964" transform="matrix(-1 -1.74846e-07 -1.74846e-07 1 275.089 109.958)" fill="#EDEDED"/>
<rect width="14.2736" height="10.6964" rx="2" transform="matrix(-1 -1.74846e-07 -1.74846e-07 1 303.503 98.5488)" fill="#EDEDED"/>
<rect width="9.9915" height="2.13928" rx="1.06964" transform="matrix(-1 -1.74846e-07 -1.74846e-07 1 301.362 109.958)" fill="#EDEDED"/>
<rect width="14.2736" height="10.6964" rx="2" transform="matrix(-1 -1.74846e-07 -1.74846e-07 1 329.777 98.5488)" fill="#EEBC00"/>
<rect width="9.9915" height="2.13928" rx="1.06964" transform="matrix(-1 -1.74846e-07 -1.74846e-07 1 327.636 109.958)" fill="#EEBC00"/>
<rect width="14.2736" height="10.6964" rx="2" transform="matrix(-1 -1.74846e-07 -1.74846e-07 1 356.051 98.5488)" fill="#EEBC00"/>
<rect width="9.9915" height="2.13928" rx="1.06964" transform="matrix(-1 -1.74846e-07 -1.74846e-07 1 353.91 109.958)" fill="#EEBC00"/>
<rect width="14.2736" height="10.6964" rx="2" transform="matrix(-1 -1.74846e-07 -1.74846e-07 1 382.324 98.5488)" fill="#EDEDED"/>
<rect width="9.9915" height="2.13928" rx="1.06964" transform="matrix(-1 -1.74846e-07 -1.74846e-07 1 380.183 109.958)" fill="#EDEDED"/>
<rect width="14.2736" height="10.6964" rx="2" transform="matrix(-1 -1.74846e-07 -1.74846e-07 1 408.598 98.5488)" fill="#EDEDED"/>
<rect width="9.9915" height="2.13928" rx="1.06964" transform="matrix(-1 -1.74846e-07 -1.74846e-07 1 406.457 109.958)" fill="#EDEDED"/>
<rect width="14.2736" height="10.6964" rx="2" transform="matrix(-1 -1.74846e-07 -1.74846e-07 1 434.872 98.5488)" fill="#EEBC00"/>
<rect width="9.9915" height="2.13928" rx="1.06964" transform="matrix(-1 -1.74846e-07 -1.74846e-07 1 432.73 109.958)" fill="#EEBC00"/>
<rect width="14.2736" height="10.6964" rx="2" transform="matrix(-1 -1.74846e-07 -1.74846e-07 1 461.145 98.5488)" fill="#EEBC00"/>
<rect width="9.9915" height="2.13928" rx="1.06964" transform="matrix(-1 -1.74846e-07 -1.74846e-07 1 459.004 109.958)" fill="#EEBC00"/>
<rect width="14.2736" height="10.6964" rx="2" transform="matrix(-1 -1.74846e-07 -1.74846e-07 1 487.418 98.5488)" fill="#EDEDED"/>
<rect width="9.9915" height="2.13928" rx="1.06964" transform="matrix(-1 -1.74846e-07 -1.74846e-07 1 485.277 109.958)" fill="#EDEDED"/>
<rect width="14.2736" height="10.6964" rx="2" transform="matrix(-1 -1.74846e-07 -1.74846e-07 1 513.692 98.5488)" fill="#EDEDED"/>
<rect width="9.9915" height="2.13928" rx="1.06964" transform="matrix(-1 -1.74846e-07 -1.74846e-07 1 511.551 109.958)" fill="#EDEDED"/>
<rect width="14.2736" height="10.6964" rx="2" transform="matrix(-1 -1.74846e-07 -1.74846e-07 1 566.239 98.5488)" fill="#EDEDED"/>
<rect width="9.9915" height="2.13928" rx="1.06964" transform="matrix(-1 -1.74846e-07 -1.74846e-07 1 564.098 109.958)" fill="#EDEDED"/>
<rect width="14.2736" height="10.6964" rx="2" transform="matrix(-1 -1.74846e-07 -1.74846e-07 1 592.513 98.5488)" fill="#EEBC00"/>
<rect width="9.9915" height="2.13928" rx="1.06964" transform="matrix(-1 -1.74846e-07 -1.74846e-07 1 590.372 109.958)" fill="#EEBC00"/>
<rect width="14.2736" height="10.6964" rx="2" transform="matrix(-1 -1.74846e-07 -1.74846e-07 1 618.786 98.5488)" fill="#EDEDED"/>
<rect width="9.9915" height="2.13928" rx="1.06964" transform="matrix(-1 -1.74846e-07 -1.74846e-07 1 616.646 109.958)" fill="#EDEDED"/>
<rect width="14.2736" height="10.6964" rx="2" transform="matrix(-1 -1.74846e-07 -1.74846e-07 1 645.06 98.5488)" fill="#EEBC00"/>
<rect width="9.9915" height="2.13928" rx="1.06964" transform="matrix(-1 -1.74846e-07 -1.74846e-07 1 642.919 109.958)" fill="#EEBC00"/>
<rect width="14.2736" height="10.6964" rx="2" transform="matrix(-1 -1.74846e-07 -1.74846e-07 1 40.7681 130.098)" fill="#EDEDED"/>
<rect width="9.9915" height="2.13928" rx="1.06964" transform="matrix(-1 -1.74846e-07 -1.74846e-07 1 38.627 141.507)" fill="#EDEDED"/>
<rect width="14.2736" height="10.6964" rx="2" transform="matrix(-1 -1.74846e-07 -1.74846e-07 1 67.0415 130.098)" fill="#EEBC00"/>
<rect width="9.9915" height="2.13928" rx="1.06964" transform="matrix(-1 -1.74846e-07 -1.74846e-07 1 64.9004 141.507)" fill="#EEBC00"/>
<rect width="14.2736" height="10.6964" rx="2" transform="matrix(-1 -1.74846e-07 -1.74846e-07 1 93.3149 130.098)" fill="#EDEDED"/>
<rect width="9.9915" height="2.13928" rx="1.06964" transform="matrix(-1 -1.74846e-07 -1.74846e-07 1 91.1738 141.507)" fill="#EDEDED"/>
<rect width="14.2736" height="10.6964" rx="2" transform="matrix(-1 -1.74846e-07 -1.74846e-07 1 119.588 130.098)" fill="#EDEDED"/>
<rect width="9.9915" height="2.13928" rx="1.06964" transform="matrix(-1 -1.74846e-07 -1.74846e-07 1 117.447 141.507)" fill="#EDEDED"/>
<rect width="14.2736" height="10.6964" rx="2" transform="matrix(-1 -1.74846e-07 -1.74846e-07 1 172.136 130.098)" fill="#75BE33"/>
<rect width="9.9915" height="2.13928" rx="1.06964" transform="matrix(-1 -1.74846e-07 -1.74846e-07 1 169.995 141.507)" fill="#75BE33"/>
<rect width="14.2736" height="10.6964" rx="2" transform="matrix(-1 -1.74846e-07 -1.74846e-07 1 198.409 130.098)" fill="#75BE33"/>
<rect width="9.9915" height="2.13928" rx="1.06964" transform="matrix(-1 -1.74846e-07 -1.74846e-07 1 196.268 141.507)" fill="#75BE33"/>
<rect width="14.2736" height="10.6964" rx="2" transform="matrix(-1 -1.74846e-07 -1.74846e-07 1 224.683 130.098)" fill="#EDEDED"/>
<rect width="9.9915" height="2.13928" rx="1.06964" transform="matrix(-1 -1.74846e-07 -1.74846e-07 1 222.542 141.507)" fill="#EDEDED"/>
<rect width="14.2736" height="10.6964" rx="2" transform="matrix(-1 -1.74846e-07 -1.74846e-07 1 250.957 130.098)" fill="#EDEDED"/>
<rect width="9.9915" height="2.13928" rx="1.06964" transform="matrix(-1 -1.74846e-07 -1.74846e-07 1 248.815 141.507)" fill="#EDEDED"/>
<rect width="14.2736" height="10.6964" rx="2" transform="matrix(-1 -1.74846e-07 -1.74846e-07 1 277.23 130.098)" fill="#EEBC00"/>
<rect width="9.9915" height="2.13928" rx="1.06964" transform="matrix(-1 -1.74846e-07 -1.74846e-07 1 275.089 141.507)" fill="#EEBC00"/>
<rect width="14.2736" height="10.6964" rx="2" transform="matrix(-1 -1.74846e-07 -1.74846e-07 1 303.503 130.098)" fill="#EEBC00"/>
<rect width="9.9915" height="2.13928" rx="1.06964" transform="matrix(-1 -1.74846e-07 -1.74846e-07 1 301.362 141.507)" fill="#EEBC00"/>
<rect width="14.2736" height="10.6964" rx="2" transform="matrix(-1 -1.74846e-07 -1.74846e-07 1 329.777 130.098)" fill="#EDEDED"/>
<rect width="9.9915" height="2.13928" rx="1.06964" transform="matrix(-1 -1.74846e-07 -1.74846e-07 1 327.636 141.507)" fill="#EDEDED"/>
<rect width="14.2736" height="10.6964" rx="2" transform="matrix(-1 -1.74846e-07 -1.74846e-07 1 356.051 130.098)" fill="#EDEDED"/>
<rect width="9.9915" height="2.13928" rx="1.06964" transform="matrix(-1 -1.74846e-07 -1.74846e-07 1 353.91 141.507)" fill="#EDEDED"/>
<rect width="14.2736" height="10.6964" rx="2" transform="matrix(-1 -1.74846e-07 -1.74846e-07 1 382.324 130.098)" fill="#EEBC00"/>
<rect width="9.9915" height="2.13928" rx="1.06964" transform="matrix(-1 -1.74846e-07 -1.74846e-07 1 380.183 141.507)" fill="#EEBC00"/>
<rect width="14.2736" height="10.6964" rx="2" transform="matrix(-1 -1.74846e-07 -1.74846e-07 1 408.598 130.098)" fill="#EEBC00"/>
<rect width="9.9915" height="2.13928" rx="1.06964" transform="matrix(-1 -1.74846e-07 -1.74846e-07 1 406.457 141.507)" fill="#EEBC00"/>
<rect width="14.2736" height="10.6964" rx="2" transform="matrix(-1 -1.74846e-07 -1.74846e-07 1 434.872 130.098)" fill="#EDEDED"/>
<rect width="9.9915" height="2.13928" rx="1.06964" transform="matrix(-1 -1.74846e-07 -1.74846e-07 1 432.73 141.507)" fill="#EDEDED"/>
<rect width="14.2736" height="10.6964" rx="2" transform="matrix(-1 -1.74846e-07 -1.74846e-07 1 461.145 130.098)" fill="#EDEDED"/>
<rect width="9.9915" height="2.13928" rx="1.06964" transform="matrix(-1 -1.74846e-07 -1.74846e-07 1 459.004 141.507)" fill="#EDEDED"/>
<rect width="14.2736" height="10.6964" rx="2" transform="matrix(-1 -1.74846e-07 -1.74846e-07 1 487.418 130.098)" fill="#75BE33"/>
<rect width="9.9915" height="2.13928" rx="1.06964" transform="matrix(-1 -1.74846e-07 -1.74846e-07 1 485.277 141.507)" fill="#75BE33"/>
<rect width="14.2736" height="10.6964" rx="2" transform="matrix(-1 -1.74846e-07 -1.74846e-07 1 513.692 130.098)" fill="#75BE33"/>
<rect width="9.9915" height="2.13928" rx="1.06964" transform="matrix(-1 -1.74846e-07 -1.74846e-07 1 511.551 141.507)" fill="#75BE33"/>
<rect width="14.2736" height="10.6964" rx="2" transform="matrix(-1 -1.74846e-07 -1.74846e-07 1 566.239 130.098)" fill="#EDEDED"/>
<rect width="9.9915" height="2.13928" rx="1.06964" transform="matrix(-1 -1.74846e-07 -1.74846e-07 1 564.098 141.507)" fill="#EDEDED"/>
<rect width="14.2736" height="10.6964" rx="2" transform="matrix(-1 -1.74846e-07 -1.74846e-07 1 592.513 130.098)" fill="#EDEDED"/>
<rect width="9.9915" height="2.13928" rx="1.06964" transform="matrix(-1 -1.74846e-07 -1.74846e-07 1 590.372 141.507)" fill="#EDEDED"/>
<rect width="14.2736" height="10.6964" rx="2" transform="matrix(-1 -1.74846e-07 -1.74846e-07 1 618.786 130.098)" fill="#EEBC00"/>
<rect width="9.9915" height="2.13928" rx="1.06964" transform="matrix(-1 -1.74846e-07 -1.74846e-07 1 616.646 141.507)" fill="#EEBC00"/>
<rect width="14.2736" height="10.6964" rx="2" transform="matrix(-1 -1.74846e-07 -1.74846e-07 1 645.06 130.098)" fill="#EDEDED"/>
<rect width="9.9915" height="2.13928" rx="1.06964" transform="matrix(-1 -1.74846e-07 -1.74846e-07 1 642.919 141.507)" fill="#EDEDED"/>
<rect width="14.2736" height="10.6964" rx="2" transform="matrix(-1 -1.74846e-07 -1.74846e-07 1 40.7681 161.646)" fill="#EDEDED"/>
<rect width="9.9915" height="2.13928" rx="1.06964" transform="matrix(-1 -1.74846e-07 -1.74846e-07 1 38.627 173.056)" fill="#EDEDED"/>
<rect width="14.2736" height="10.6964" rx="2" transform="matrix(-1 -1.74846e-07 -1.74846e-07 1 67.0415 161.646)" fill="#EDEDED"/>
<rect width="9.9915" height="2.13928" rx="1.06964" transform="matrix(-1 -1.74846e-07 -1.74846e-07 1 64.9004 173.056)" fill="#EDEDED"/>
<rect width="14.2736" height="10.6964" rx="2" transform="matrix(-1 -1.74846e-07 -1.74846e-07 1 93.3149 161.646)" fill="#EEBC00"/>
<rect width="9.9915" height="2.13928" rx="1.06964" transform="matrix(-1 -1.74846e-07 -1.74846e-07 1 91.1738 173.056)" fill="#EEBC00"/>
<rect width="14.2736" height="10.6964" rx="2" transform="matrix(-1 -1.74846e-07 -1.74846e-07 1 119.588 161.646)" fill="#EDEDED"/>
<rect width="9.9915" height="2.13928" rx="1.06964" transform="matrix(-1 -1.74846e-07 -1.74846e-07 1 117.447 173.056)" fill="#EDEDED"/>
<rect width="14.2736" height="10.6964" rx="2" transform="matrix(-1 -1.74846e-07 -1.74846e-07 1 172.136 161.646)" fill="#EDEDED"/>
<rect width="9.9915" height="2.13928" rx="1.06964" transform="matrix(-1 -1.74846e-07 -1.74846e-07 1 169.995 173.056)" fill="#EDEDED"/>
<rect width="14.2736" height="10.6964" rx="2" transform="matrix(-1 -1.74846e-07 -1.74846e-07 1 198.409 161.646)" fill="#EDEDED"/>
<rect width="9.9915" height="2.13928" rx="1.06964" transform="matrix(-1 -1.74846e-07 -1.74846e-07 1 196.268 173.056)" fill="#EDEDED"/>
<rect width="14.2736" height="10.6964" rx="2" transform="matrix(-1 -1.74846e-07 -1.74846e-07 1 224.683 161.646)" fill="#EEBC00"/>
<rect width="9.9915" height="2.13928" rx="1.06964" transform="matrix(-1 -1.74846e-07 -1.74846e-07 1 222.542 173.056)" fill="#EEBC00"/>
<rect width="14.2736" height="10.6964" rx="2" transform="matrix(-1 -1.74846e-07 -1.74846e-07 1 250.957 161.646)" fill="#EEBC00"/>
<rect width="9.9915" height="2.13928" rx="1.06964" transform="matrix(-1 -1.74846e-07 -1.74846e-07 1 248.815 173.056)" fill="#EEBC00"/>
<rect width="14.2736" height="10.6964" rx="2" transform="matrix(-1 -1.74846e-07 -1.74846e-07 1 277.23 161.646)" fill="#EDEDED"/>
<rect width="9.9915" height="2.13928" rx="1.06964" transform="matrix(-1 -1.74846e-07 -1.74846e-07 1 275.089 173.056)" fill="#EDEDED"/>
<rect width="14.2736" height="10.6964" rx="2" transform="matrix(-1 -1.74846e-07 -1.74846e-07 1 303.503 161.646)" fill="#EDEDED"/>
<rect width="9.9915" height="2.13928" rx="1.06964" transform="matrix(-1 -1.74846e-07 -1.74846e-07 1 301.362 173.056)" fill="#EDEDED"/>
<rect width="14.2736" height="10.6964" rx="2" transform="matrix(-1 -1.74846e-07 -1.74846e-07 1 329.777 161.646)" fill="#EEBC00"/>
<rect width="9.9915" height="2.13928" rx="1.06964" transform="matrix(-1 -1.74846e-07 -1.74846e-07 1 327.636 173.056)" fill="#EEBC00"/>
<rect width="14.2736" height="10.6964" rx="2" transform="matrix(-1 -1.74846e-07 -1.74846e-07 1 356.051 161.646)" fill="#EEBC00"/>
<rect width="9.9915" height="2.13928" rx="1.06964" transform="matrix(-1 -1.74846e-07 -1.74846e-07 1 353.91 173.056)" fill="#EEBC00"/>
<rect width="14.2736" height="10.6964" rx="2" transform="matrix(-1 -1.74846e-07 -1.74846e-07 1 382.324 161.646)" fill="#EDEDED"/>
<rect width="9.9915" height="2.13928" rx="1.06964" transform="matrix(-1 -1.74846e-07 -1.74846e-07 1 380.183 173.056)" fill="#EDEDED"/>
<rect width="14.2736" height="10.6964" rx="2" transform="matrix(-1 -1.74846e-07 -1.74846e-07 1 408.598 161.646)" fill="#EDEDED"/>
<rect width="9.9915" height="2.13928" rx="1.06964" transform="matrix(-1 -1.74846e-07 -1.74846e-07 1 406.457 173.056)" fill="#EDEDED"/>
<rect width="14.2736" height="10.6964" rx="2" transform="matrix(-1 -1.74846e-07 -1.74846e-07 1 434.872 161.646)" fill="#EEBC00"/>
<rect width="9.9915" height="2.13928" rx="1.06964" transform="matrix(-1 -1.74846e-07 -1.74846e-07 1 432.73 173.056)" fill="#EEBC00"/>
<rect width="14.2736" height="10.6964" rx="2" transform="matrix(-1 -1.74846e-07 -1.74846e-07 1 461.145 161.646)" fill="#EEBC00"/>
<rect width="9.9915" height="2.13928" rx="1.06964" transform="matrix(-1 -1.74846e-07 -1.74846e-07 1 459.004 173.056)" fill="#EEBC00"/>
<rect width="14.2736" height="10.6964" rx="2" transform="matrix(-1 -1.74846e-07 -1.74846e-07 1 487.418 161.646)" fill="#EDEDED"/>
<rect width="9.9915" height="2.13928" rx="1.06964" transform="matrix(-1 -1.74846e-07 -1.74846e-07 1 485.277 173.056)" fill="#EDEDED"/>
<rect width="14.2736" height="10.6964" rx="2" transform="matrix(-1 -1.74846e-07 -1.74846e-07 1 513.692 161.646)" fill="#EDEDED"/>
<rect width="9.9915" height="2.13928" rx="1.06964" transform="matrix(-1 -1.74846e-07 -1.74846e-07 1 511.551 173.056)" fill="#EDEDED"/>
<rect width="14.2736" height="10.6964" rx="2" transform="matrix(-1 -1.74846e-07 -1.74846e-07 1 566.239 161.646)" fill="#EDEDED"/>
<rect width="9.9915" height="2.13928" rx="1.06964" transform="matrix(-1 -1.74846e-07 -1.74846e-07 1 564.098 173.056)" fill="#EDEDED"/>
<rect width="14.2736" height="10.6964" rx="2" transform="matrix(-1 -1.74846e-07 -1.74846e-07 1 592.513 161.646)" fill="#EEBC00"/>
<rect width="9.9915" height="2.13928" rx="1.06964" transform="matrix(-1 -1.74846e-07 -1.74846e-07 1 590.372 173.056)" fill="#EEBC00"/>
<rect width="14.2736" height="10.6964" rx="2" transform="matrix(-1 -1.74846e-07 -1.74846e-07 1 618.786 161.646)" fill="#EDEDED"/>
<rect width="9.9915" height="2.13928" rx="1.06964" transform="matrix(-1 -1.74846e-07 -1.74846e-07 1 616.646 173.056)" fill="#EDEDED"/>
<rect width="14.2736" height="10.6964" rx="2" transform="matrix(-1 -1.74846e-07 -1.74846e-07 1 645.06 161.646)" fill="#EDEDED"/>
<rect width="9.9915" height="2.13928" rx="1.06964" transform="matrix(-1 -1.74846e-07 -1.74846e-07 1 642.919 173.056)" fill="#EDEDED"/>
<rect width="14.2736" height="10.6964" rx="2" transform="matrix(-1 -1.74846e-07 -1.74846e-07 1 14.4941 193.195)" fill="#EEBC00"/>
<rect width="9.9915" height="2.13928" rx="1.06964" transform="matrix(-1 -1.74846e-07 -1.74846e-07 1 12.353 204.604)" fill="#EEBC00"/>
<rect width="14.2736" height="10.6964" rx="2" transform="matrix(-1 -1.74846e-07 -1.74846e-07 1 40.7681 193.195)" fill="#EEBC00"/>
<rect width="9.9915" height="2.13928" rx="1.06964" transform="matrix(-1 -1.74846e-07 -1.74846e-07 1 38.627 204.604)" fill="#EEBC00"/>
<rect width="14.2736" height="10.6964" rx="2" transform="matrix(-1 -1.74846e-07 -1.74846e-07 1 67.0415 193.195)" fill="#EDEDED"/>
<rect width="9.9915" height="2.13928" rx="1.06964" transform="matrix(-1 -1.74846e-07 -1.74846e-07 1 64.9004 204.604)" fill="#EDEDED"/>
<rect width="14.2736" height="10.6964" rx="2" transform="matrix(-1 -1.74846e-07 -1.74846e-07 1 93.3149 193.195)" fill="#EDEDED"/>
<rect width="9.9915" height="2.13928" rx="1.06964" transform="matrix(-1 -1.74846e-07 -1.74846e-07 1 91.1738 204.604)" fill="#EDEDED"/>
<rect width="14.2736" height="10.6964" rx="2" transform="matrix(-1 -1.74846e-07 -1.74846e-07 1 119.588 193.195)" fill="#EDEDED"/>
<rect width="9.9915" height="2.13928" rx="1.06964" transform="matrix(-1 -1.74846e-07 -1.74846e-07 1 117.447 204.604)" fill="#EDEDED"/>
<rect width="14.2736" height="10.6964" rx="2" transform="matrix(-1 -1.74846e-07 -1.74846e-07 1 172.136 193.195)" fill="#B83E80"/>
<rect width="9.9915" height="2.13928" rx="1.06964" transform="matrix(-1 -1.74846e-07 -1.74846e-07 1 169.995 204.604)" fill="#B83E80"/>
<rect width="14.2736" height="10.6964" rx="2" transform="matrix(-1 -1.74846e-07 -1.74846e-07 1 198.409 193.195)" fill="#B83E80"/>
<rect width="9.9915" height="2.13928" rx="1.06964" transform="matrix(-1 -1.74846e-07 -1.74846e-07 1 196.268 204.604)" fill="#B83E80"/>
<rect width="14.2736" height="10.6964" rx="2" transform="matrix(-1 -1.74846e-07 -1.74846e-07 1 224.683 193.195)" fill="#EDEDED"/>
<rect width="9.9915" height="2.13928" rx="1.06964" transform="matrix(-1 -1.74846e-07 -1.74846e-07 1 222.542 204.604)" fill="#EDEDED"/>
<rect width="14.2736" height="10.6964" rx="2" transform="matrix(-1 -1.74846e-07 -1.74846e-07 1 250.957 193.195)" fill="#EDEDED"/>
<rect width="9.9915" height="2.13928" rx="1.06964" transform="matrix(-1 -1.74846e-07 -1.74846e-07 1 248.815 204.604)" fill="#EDEDED"/>
<rect width="14.2736" height="10.6964" rx="2" transform="matrix(-1 -1.74846e-07 -1.74846e-07 1 277.23 193.195)" fill="#EEBC00"/>
<rect width="9.9915" height="2.13928" rx="1.06964" transform="matrix(-1 -1.74846e-07 -1.74846e-07 1 275.089 204.604)" fill="#EEBC00"/>
<rect width="14.2736" height="10.6964" rx="2" transform="matrix(-1 -1.74846e-07 -1.74846e-07 1 303.503 193.195)" fill="#EEBC00"/>
<rect width="9.9915" height="2.13928" rx="1.06964" transform="matrix(-1 -1.74846e-07 -1.74846e-07 1 301.362 204.604)" fill="#EEBC00"/>
<rect width="14.2736" height="10.6964" rx="2" transform="matrix(-1 -1.74846e-07 -1.74846e-07 1 329.777 193.195)" fill="#EDEDED"/>
<rect width="9.9915" height="2.13928" rx="1.06964" transform="matrix(-1 -1.74846e-07 -1.74846e-07 1 327.636 204.604)" fill="#EDEDED"/>
<rect width="14.2736" height="10.6964" rx="2" transform="matrix(-1 -1.74846e-07 -1.74846e-07 1 356.051 193.195)" fill="#EDEDED"/>
<rect width="9.9915" height="2.13928" rx="1.06964" transform="matrix(-1 -1.74846e-07 -1.74846e-07 1 353.91 204.604)" fill="#EDEDED"/>
<rect width="14.2736" height="10.6964" rx="2" transform="matrix(-1 -1.74846e-07 -1.74846e-07 1 382.324 193.195)" fill="#EEBC00"/>
<rect width="9.9915" height="2.13928" rx="1.06964" transform="matrix(-1 -1.74846e-07 -1.74846e-07 1 380.183 204.604)" fill="#EEBC00"/>
<rect width="14.2736" height="10.6964" rx="2" transform="matrix(-1 -1.74846e-07 -1.74846e-07 1 408.598 193.195)" fill="#EEBC00"/>
<rect width="9.9915" height="2.13928" rx="1.06964" transform="matrix(-1 -1.74846e-07 -1.74846e-07 1 406.457 204.604)" fill="#EEBC00"/>
<rect width="14.2736" height="10.6964" rx="2" transform="matrix(-1 -1.74846e-07 -1.74846e-07 1 434.872 193.195)" fill="#EDEDED"/>
<rect width="9.9915" height="2.13928" rx="1.06964" transform="matrix(-1 -1.74846e-07 -1.74846e-07 1 432.73 204.604)" fill="#EDEDED"/>
<rect width="14.2736" height="10.6964" rx="2" transform="matrix(-1 -1.74846e-07 -1.74846e-07 1 461.145 193.195)" fill="#EDEDED"/>
<rect width="9.9915" height="2.13928" rx="1.06964" transform="matrix(-1 -1.74846e-07 -1.74846e-07 1 459.004 204.604)" fill="#EDEDED"/>
<rect width="14.2736" height="10.6964" rx="2" transform="matrix(-1 -1.74846e-07 -1.74846e-07 1 487.418 193.195)" fill="#B83E80"/>
<rect width="9.9915" height="2.13928" rx="1.06964" transform="matrix(-1 -1.74846e-07 -1.74846e-07 1 485.277 204.604)" fill="#B83E80"/>
<rect width="14.2736" height="10.6964" rx="2" transform="matrix(-1 -1.74846e-07 -1.74846e-07 1 513.692 193.195)" fill="#B83E80"/>
<rect width="9.9915" height="2.13928" rx="1.06964" transform="matrix(-1 -1.74846e-07 -1.74846e-07 1 511.551 204.604)" fill="#B83E80"/>
<rect width="14.2736" height="10.6964" rx="2" transform="matrix(-1 -1.74846e-07 -1.74846e-07 1 566.239 193.195)" fill="#EDEDED"/>
<rect width="9.9915" height="2.13928" rx="1.06964" transform="matrix(-1 -1.74846e-07 -1.74846e-07 1 564.098 204.604)" fill="#EDEDED"/>
<rect width="14.2736" height="10.6964" rx="2" transform="matrix(-1 -1.74846e-07 -1.74846e-07 1 592.513 193.195)" fill="#EDEDED"/>
<rect width="9.9915" height="2.13928" rx="1.06964" transform="matrix(-1 -1.74846e-07 -1.74846e-07 1 590.372 204.604)" fill="#EDEDED"/>
<rect width="14.2736" height="10.6964" rx="2" transform="matrix(-1 -1.74846e-07 -1.74846e-07 1 618.786 193.195)" fill="#EDEDED"/>
<rect width="9.9915" height="2.13928" rx="1.06964" transform="matrix(-1 -1.74846e-07 -1.74846e-07 1 616.646 204.604)" fill="#EDEDED"/>
<rect width="14.2736" height="10.6964" rx="2" transform="matrix(-1 -1.74846e-07 -1.74846e-07 1 645.06 193.195)" fill="#EEBC00"/>
<rect width="9.9915" height="2.13928" rx="1.06964" transform="matrix(-1 -1.74846e-07 -1.74846e-07 1 642.919 204.604)" fill="#EEBC00"/>
<rect width="14.2736" height="10.6964" rx="2" transform="matrix(-1 -1.74846e-07 -1.74846e-07 1 671.333 193.195)" fill="#EEBC00"/>
<rect width="9.9915" height="2.13928" rx="1.06964" transform="matrix(-1 -1.74846e-07 -1.74846e-07 1 669.193 204.604)" fill="#EEBC00"/>
<rect width="14.2736" height="10.6964" rx="2" transform="matrix(-1 -1.74846e-07 -1.74846e-07 1 14.4941 224.744)" fill="#EDEDED"/>
<rect width="9.9915" height="2.13928" rx="1.06964" transform="matrix(-1 -1.74846e-07 -1.74846e-07 1 12.353 236.153)" fill="#EDEDED"/>
<rect width="14.2736" height="10.6964" rx="2" transform="matrix(-1 -1.74846e-07 -1.74846e-07 1 40.7681 224.744)" fill="#EDEDED"/>
<rect width="9.9915" height="2.13928" rx="1.06964" transform="matrix(-1 -1.74846e-07 -1.74846e-07 1 38.627 236.153)" fill="#EDEDED"/>
<rect width="14.2736" height="10.6964" rx="2" transform="matrix(-1 -1.74846e-07 -1.74846e-07 1 67.0415 224.744)" fill="#EEBC00"/>
<rect width="9.9915" height="2.13928" rx="1.06964" transform="matrix(-1 -1.74846e-07 -1.74846e-07 1 64.9004 236.153)" fill="#EEBC00"/>
<rect width="14.2736" height="10.6964" rx="2" transform="matrix(-1 -1.74846e-07 -1.74846e-07 1 93.3149 224.744)" fill="#EEBC00"/>
<rect width="9.9915" height="2.13928" rx="1.06964" transform="matrix(-1 -1.74846e-07 -1.74846e-07 1 91.1738 236.153)" fill="#EEBC00"/>
<rect width="14.2736" height="10.6964" rx="2" transform="matrix(-1 -1.74846e-07 -1.74846e-07 1 119.588 224.744)" fill="#EDEDED"/>
<rect width="9.9915" height="2.13928" rx="1.06964" transform="matrix(-1 -1.74846e-07 -1.74846e-07 1 117.447 236.153)" fill="#EDEDED"/>
<rect width="14.2736" height="10.6964" rx="2" transform="matrix(-1 -1.74846e-07 -1.74846e-07 1 172.136 224.744)" fill="#EDEDED"/>
<rect width="9.9915" height="2.13928" rx="1.06964" transform="matrix(-1 -1.74846e-07 -1.74846e-07 1 169.995 236.153)" fill="#EDEDED"/>
<rect width="14.2736" height="10.6964" rx="2" transform="matrix(-1 -1.74846e-07 -1.74846e-07 1 198.409 224.744)" fill="#EDEDED"/>
<rect width="9.9915" height="2.13928" rx="1.06964" transform="matrix(-1 -1.74846e-07 -1.74846e-07 1 196.268 236.153)" fill="#EDEDED"/>
<rect width="14.2736" height="10.6964" rx="2" transform="matrix(-1 -1.74846e-07 -1.74846e-07 1 224.683 224.744)" fill="#EEBC00"/>
<rect width="9.9915" height="2.13928" rx="1.06964" transform="matrix(-1 -1.74846e-07 -1.74846e-07 1 222.542 236.153)" fill="#EEBC00"/>
<rect width="14.2736" height="10.6964" rx="2" transform="matrix(-1 -1.74846e-07 -1.74846e-07 1 250.957 224.744)" fill="#EEBC00"/>
<rect width="9.9915" height="2.13928" rx="1.06964" transform="matrix(-1 -1.74846e-07 -1.74846e-07 1 248.815 236.153)" fill="#EEBC00"/>
<rect width="14.2736" height="10.6964" rx="2" transform="matrix(-1 -1.74846e-07 -1.74846e-07 1 277.23 224.744)" fill="#EDEDED"/>
<rect width="9.9915" height="2.13928" rx="1.06964" transform="matrix(-1 -1.74846e-07 -1.74846e-07 1 275.089 236.153)" fill="#EDEDED"/>
<rect width="14.2736" height="10.6964" rx="2" transform="matrix(-1 -1.74846e-07 -1.74846e-07 1 303.503 224.744)" fill="#EDEDED"/>
<rect width="9.9915" height="2.13928" rx="1.06964" transform="matrix(-1 -1.74846e-07 -1.74846e-07 1 301.362 236.153)" fill="#EDEDED"/>
<rect width="14.2736" height="10.6964" rx="2" transform="matrix(-1 -1.74846e-07 -1.74846e-07 1 329.777 224.744)" fill="#191919"/>
<rect width="9.9915" height="2.13928" rx="1.06964" transform="matrix(-1 -1.74846e-07 -1.74846e-07 1 327.636 236.153)" fill="#191919"/>
<rect width="14.2736" height="10.6964" rx="2" transform="matrix(-1 -1.74846e-07 -1.74846e-07 1 356.051 224.744)" fill="#191919"/>
<rect width="9.9915" height="2.13928" rx="1.06964" transform="matrix(-1 -1.74846e-07 -1.74846e-07 1 353.91 236.153)" fill="#191919"/>
<rect width="14.2736" height="10.6964" rx="2" transform="matrix(-1 -1.74846e-07 -1.74846e-07 1 382.324 224.744)" fill="#EDEDED"/>
<rect width="9.9915" height="2.13928" rx="1.06964" transform="matrix(-1 -1.74846e-07 -1.74846e-07 1 380.183 236.153)" fill="#EDEDED"/>
<rect width="14.2736" height="10.6964" rx="2" transform="matrix(-1 -1.74846e-07 -1.74846e-07 1 408.598 224.744)" fill="#EDEDED"/>
<rect width="9.9915" height="2.13928" rx="1.06964" transform="matrix(-1 -1.74846e-07 -1.74846e-07 1 406.457 236.153)" fill="#EDEDED"/>
<rect width="14.2736" height="10.6964" rx="2" transform="matrix(-1 -1.74846e-07 -1.74846e-07 1 434.872 224.744)" fill="#EEBC00"/>
<rect width="9.9915" height="2.13928" rx="1.06964" transform="matrix(-1 -1.74846e-07 -1.74846e-07 1 432.73 236.153)" fill="#EEBC00"/>
<rect width="14.2736" height="10.6964" rx="2" transform="matrix(-1 -1.74846e-07 -1.74846e-07 1 461.145 224.744)" fill="#EEBC00"/>
<rect width="9.9915" height="2.13928" rx="1.06964" transform="matrix(-1 -1.74846e-07 -1.74846e-07 1 459.004 236.153)" fill="#EEBC00"/>
<rect width="14.2736" height="10.6964" rx="2" transform="matrix(-1 -1.74846e-07 -1.74846e-07 1 487.418 224.744)" fill="#EDEDED"/>
<rect width="9.9915" height="2.13928" rx="1.06964" transform="matrix(-1 -1.74846e-07 -1.74846e-07 1 485.277 236.153)" fill="#EDEDED"/>
<rect width="14.2736" height="10.6964" rx="2" transform="matrix(-1 -1.74846e-07 -1.74846e-07 1 513.692 224.744)" fill="#EDEDED"/>
<rect width="9.9915" height="2.13928" rx="1.06964" transform="matrix(-1 -1.74846e-07 -1.74846e-07 1 511.551 236.153)" fill="#EDEDED"/>
<rect width="14.2736" height="10.6964" rx="2" transform="matrix(-1 -1.74846e-07 -1.74846e-07 1 566.239 224.744)" fill="#EDEDED"/>
<rect width="9.9915" height="2.13928" rx="1.06964" transform="matrix(-1 -1.74846e-07 -1.74846e-07 1 564.098 236.153)" fill="#EDEDED"/>
<rect width="14.2736" height="10.6964" rx="2" transform="matrix(-1 -1.74846e-07 -1.74846e-07 1 592.513 224.744)" fill="#EEBC00"/>
<rect width="9.9915" height="2.13928" rx="1.06964" transform="matrix(-1 -1.74846e-07 -1.74846e-07 1 590.372 236.153)" fill="#EEBC00"/>
<rect width="14.2736" height="10.6964" rx="2" transform="matrix(-1 -1.74846e-07 -1.74846e-07 1 618.786 224.744)" fill="#EEBC00"/>
<rect width="9.9915" height="2.13928" rx="1.06964" transform="matrix(-1 -1.74846e-07 -1.74846e-07 1 616.646 236.153)" fill="#EEBC00"/>
<rect width="14.2736" height="10.6964" rx="2" transform="matrix(-1 -1.74846e-07 -1.74846e-07 1 645.06 224.744)" fill="#EDEDED"/>
<rect width="9.9915" height="2.13928" rx="1.06964" transform="matrix(-1 -1.74846e-07 -1.74846e-07 1 642.919 236.153)" fill="#EDEDED"/>
<rect width="14.2736" height="10.6964" rx="2" transform="matrix(-1 -1.74846e-07 -1.74846e-07 1 671.333 224.744)" fill="#EDEDED"/>
<rect width="9.9915" height="2.13928" rx="1.06964" transform="matrix(-1 -1.74846e-07 -1.74846e-07 1 669.193 236.153)" fill="#EDEDED"/>
<rect width="14.2736" height="10.6964" rx="2" transform="matrix(-1 -1.74846e-07 -1.74846e-07 1 14.4941 256.293)" fill="#EEBC00"/>
<rect width="9.9915" height="2.13928" rx="1.06964" transform="matrix(-1 -1.74846e-07 -1.74846e-07 1 12.353 267.702)" fill="#EEBC00"/>
<rect width="14.2736" height="10.6964" rx="2" transform="matrix(-1 -1.74846e-07 -1.74846e-07 1 40.7681 256.293)" fill="#EEBC00"/>
<rect width="9.9915" height="2.13928" rx="1.06964" transform="matrix(-1 -1.74846e-07 -1.74846e-07 1 38.627 267.702)" fill="#EEBC00"/>
<rect width="14.2736" height="10.6964" rx="2" transform="matrix(-1 -1.74846e-07 -1.74846e-07 1 67.0415 256.293)" fill="#EDEDED"/>
<rect width="9.9915" height="2.13928" rx="1.06964" transform="matrix(-1 -1.74846e-07 -1.74846e-07 1 64.9004 267.702)" fill="#EDEDED"/>
<rect width="14.2736" height="10.6964" rx="2" transform="matrix(-1 -1.74846e-07 -1.74846e-07 1 93.3149 256.293)" fill="#EDEDED"/>
<rect width="9.9915" height="2.13928" rx="1.06964" transform="matrix(-1 -1.74846e-07 -1.74846e-07 1 91.1738 267.702)" fill="#EDEDED"/>
<rect width="14.2736" height="10.6964" rx="2" transform="matrix(-1 -1.74846e-07 -1.74846e-07 1 119.588 256.293)" fill="#EDEDED"/>
<rect width="9.9915" height="2.13928" rx="1.06964" transform="matrix(-1 -1.74846e-07 -1.74846e-07 1 117.447 267.702)" fill="#EDEDED"/>
<rect width="14.2736" height="10.6964" rx="2" transform="matrix(-1 -1.74846e-07 -1.74846e-07 1 172.136 256.293)" fill="#75BE33"/>
<rect width="9.9915" height="2.13928" rx="1.06964" transform="matrix(-1 -1.74846e-07 -1.74846e-07 1 169.995 267.702)" fill="#75BE33"/>
<rect width="14.2736" height="10.6964" rx="2" transform="matrix(-1 -1.74846e-07 -1.74846e-07 1 198.409 256.293)" fill="#75BE33"/>
<rect width="9.9915" height="2.13928" rx="1.06964" transform="matrix(-1 -1.74846e-07 -1.74846e-07 1 196.268 267.702)" fill="#75BE33"/>
<rect width="14.2736" height="10.6964" rx="2" transform="matrix(-1 -1.74846e-07 -1.74846e-07 1 224.683 256.293)" fill="#EDEDED"/>
<rect width="9.9915" height="2.13928" rx="1.06964" transform="matrix(-1 -1.74846e-07 -1.74846e-07 1 222.542 267.702)" fill="#EDEDED"/>
<rect width="14.2736" height="10.6964" rx="2" transform="matrix(-1 -1.74846e-07 -1.74846e-07 1 250.957 256.293)" fill="#EDEDED"/>
<rect width="9.9915" height="2.13928" rx="1.06964" transform="matrix(-1 -1.74846e-07 -1.74846e-07 1 248.815 267.702)" fill="#EDEDED"/>
<rect width="14.2736" height="10.6964" rx="2" transform="matrix(-1 -1.74846e-07 -1.74846e-07 1 277.23 256.293)" fill="#EEBC00"/>
<rect width="9.9915" height="2.13928" rx="1.06964" transform="matrix(-1 -1.74846e-07 -1.74846e-07 1 275.089 267.702)" fill="#EEBC00"/>
<rect width="14.2736" height="10.6964" rx="2" transform="matrix(-1 -1.74846e-07 -1.74846e-07 1 303.503 256.293)" fill="#EEBC00"/>
<rect width="9.9915" height="2.13928" rx="1.06964" transform="matrix(-1 -1.74846e-07 -1.74846e-07 1 301.362 267.702)" fill="#EEBC00"/>
<rect width="14.2736" height="10.6964" rx="2" transform="matrix(-1 -1.74846e-07 -1.74846e-07 1 329.777 256.293)" fill="#EDEDED"/>
<rect width="9.9915" height="2.13928" rx="1.06964" transform="matrix(-1 -1.74846e-07 -1.74846e-07 1 327.636 267.702)" fill="#EDEDED"/>
<rect width="14.2736" height="10.6964" rx="2" transform="matrix(-1 -1.74846e-07 -1.74846e-07 1 356.051 256.293)" fill="#EDEDED"/>
<rect width="9.9915" height="2.13928" rx="1.06964" transform="matrix(-1 -1.74846e-07 -1.74846e-07 1 353.91 267.702)" fill="#EDEDED"/>
<rect width="14.2736" height="10.6964" rx="2" transform="matrix(-1 -1.74846e-07 -1.74846e-07 1 382.324 256.293)" fill="#EEBC00"/>
<rect width="9.9915" height="2.13928" rx="1.06964" transform="matrix(-1 -1.74846e-07 -1.74846e-07 1 380.183 267.702)" fill="#EEBC00"/>
<rect width="14.2736" height="10.6964" rx="2" transform="matrix(-1 -1.74846e-07 -1.74846e-07 1 408.598 256.293)" fill="#EEBC00"/>
<rect width="9.9915" height="2.13928" rx="1.06964" transform="matrix(-1 -1.74846e-07 -1.74846e-07 1 406.457 267.702)" fill="#EEBC00"/>
<rect width="14.2736" height="10.6964" rx="2" transform="matrix(-1 -1.74846e-07 -1.74846e-07 1 434.872 256.293)" fill="#EDEDED"/>
<rect width="9.9915" height="2.13928" rx="1.06964" transform="matrix(-1 -1.74846e-07 -1.74846e-07 1 432.73 267.702)" fill="#EDEDED"/>
<rect width="14.2736" height="10.6964" rx="2" transform="matrix(-1 -1.74846e-07 -1.74846e-07 1 461.145 256.293)" fill="#EDEDED"/>
<rect width="9.9915" height="2.13928" rx="1.06964" transform="matrix(-1 -1.74846e-07 -1.74846e-07 1 459.004 267.702)" fill="#EDEDED"/>
<rect width="14.2736" height="10.6964" rx="2" transform="matrix(-1 -1.74846e-07 -1.74846e-07 1 487.418 256.293)" fill="#75BE33"/>
<rect width="9.9915" height="2.13928" rx="1.06964" transform="matrix(-1 -1.74846e-07 -1.74846e-07 1 485.277 267.702)" fill="#75BE33"/>
<rect width="14.2736" height="10.6964" rx="2" transform="matrix(-1 -1.74846e-07 -1.74846e-07 1 513.692 256.293)" fill="#75BE33"/>
<rect width="9.9915" height="2.13928" rx="1.06964" transform="matrix(-1 -1.74846e-07 -1.74846e-07 1 511.551 267.702)" fill="#75BE33"/>
<rect width="14.2736" height="10.6964" rx="2" transform="matrix(-1 -1.74846e-07 -1.74846e-07 1 566.239 256.293)" fill="#EDEDED"/>
<rect width="9.9915" height="2.13928" rx="1.06964" transform="matrix(-1 -1.74846e-07 -1.74846e-07 1 564.098 267.702)" fill="#EDEDED"/>
<rect width="14.2736" height="10.6964" rx="2" transform="matrix(-1 -1.74846e-07 -1.74846e-07 1 592.513 256.293)" fill="#EDEDED"/>
<rect width="9.9915" height="2.13928" rx="1.06964" transform="matrix(-1 -1.74846e-07 -1.74846e-07 1 590.372 267.702)" fill="#EDEDED"/>
<rect width="14.2736" height="10.6964" rx="2" transform="matrix(-1 -1.74846e-07 -1.74846e-07 1 618.786 256.293)" fill="#EDEDED"/>
<rect width="9.9915" height="2.13928" rx="1.06964" transform="matrix(-1 -1.74846e-07 -1.74846e-07 1 616.646 267.702)" fill="#EDEDED"/>
<rect width="14.2736" height="10.6964" rx="2" transform="matrix(-1 -1.74846e-07 -1.74846e-07 1 645.06 256.293)" fill="#EEBC00"/>
<rect width="9.9915" height="2.13928" rx="1.06964" transform="matrix(-1 -1.74846e-07 -1.74846e-07 1 642.919 267.702)" fill="#EEBC00"/>
<rect width="14.2736" height="10.6964" rx="2" transform="matrix(-1 -1.74846e-07 -1.74846e-07 1 671.333 256.293)" fill="#EEBC00"/>
<rect width="9.9915" height="2.13928" rx="1.06964" transform="matrix(-1 -1.74846e-07 -1.74846e-07 1 669.193 267.702)" fill="#EEBC00"/>
<rect width="14.2736" height="10.6964" rx="2" transform="matrix(-1 -1.74846e-07 -1.74846e-07 1 14.4941 287.842)" fill="#EDEDED"/>
<rect width="9.9915" height="2.13928" rx="1.06964" transform="matrix(-1 -1.74846e-07 -1.74846e-07 1 12.353 299.251)" fill="#EDEDED"/>
<rect width="14.2736" height="10.6964" rx="2" transform="matrix(-1 -1.74846e-07 -1.74846e-07 1 40.7681 287.842)" fill="#EDEDED"/>
<rect width="9.9915" height="2.13928" rx="1.06964" transform="matrix(-1 -1.74846e-07 -1.74846e-07 1 38.627 299.251)" fill="#EDEDED"/>
<rect width="14.2736" height="10.6964" rx="2" transform="matrix(-1 -1.74846e-07 -1.74846e-07 1 67.0415 287.842)" fill="#EEBC00"/>
<rect width="9.9915" height="2.13928" rx="1.06964" transform="matrix(-1 -1.74846e-07 -1.74846e-07 1 64.9004 299.251)" fill="#EEBC00"/>
<rect width="14.2736" height="10.6964" rx="2" transform="matrix(-1 -1.74846e-07 -1.74846e-07 1 93.3149 287.842)" fill="#EEBC00"/>
<rect width="9.9915" height="2.13928" rx="1.06964" transform="matrix(-1 -1.74846e-07 -1.74846e-07 1 91.1738 299.251)" fill="#EEBC00"/>
<rect width="14.2736" height="10.6964" rx="2" transform="matrix(-1 -1.74846e-07 -1.74846e-07 1 119.588 287.842)" fill="#EDEDED"/>
<rect width="9.9915" height="2.13928" rx="1.06964" transform="matrix(-1 -1.74846e-07 -1.74846e-07 1 117.447 299.251)" fill="#EDEDED"/>
<rect width="14.2736" height="10.6964" rx="2" transform="matrix(-1 -1.74846e-07 -1.74846e-07 1 172.136 287.842)" fill="#EDEDED"/>
<rect width="9.9915" height="2.13928" rx="1.06964" transform="matrix(-1 -1.74846e-07 -1.74846e-07 1 169.995 299.251)" fill="#EDEDED"/>
<rect width="14.2736" height="10.6964" rx="2" transform="matrix(-1 -1.74846e-07 -1.74846e-07 1 198.409 287.842)" fill="#EDEDED"/>
<rect width="9.9915" height="2.13928" rx="1.06964" transform="matrix(-1 -1.74846e-07 -1.74846e-07 1 196.268 299.251)" fill="#EDEDED"/>
<rect width="14.2736" height="10.6964" rx="2" transform="matrix(-1 -1.74846e-07 -1.74846e-07 1 224.683 287.842)" fill="#EEBC00"/>
<rect width="9.9915" height="2.13928" rx="1.06964" transform="matrix(-1 -1.74846e-07 -1.74846e-07 1 222.542 299.251)" fill="#EEBC00"/>
<rect width="14.2736" height="10.6964" rx="2" transform="matrix(-1 -1.74846e-07 -1.74846e-07 1 250.957 287.842)" fill="#EEBC00"/>
<rect width="9.9915" height="2.13928" rx="1.06964" transform="matrix(-1 -1.74846e-07 -1.74846e-07 1 248.815 299.251)" fill="#EEBC00"/>
<rect width="14.2736" height="10.6964" rx="2" transform="matrix(-1 -1.74846e-07 -1.74846e-07 1 277.23 287.842)" fill="#EDEDED"/>
<rect width="9.9915" height="2.13928" rx="1.06964" transform="matrix(-1 -1.74846e-07 -1.74846e-07 1 275.089 299.251)" fill="#EDEDED"/>
<rect width="14.2736" height="10.6964" rx="2" transform="matrix(-1 -1.74846e-07 -1.74846e-07 1 303.503 287.842)" fill="#EDEDED"/>
<rect width="9.9915" height="2.13928" rx="1.06964" transform="matrix(-1 -1.74846e-07 -1.74846e-07 1 301.362 299.251)" fill="#EDEDED"/>
<rect width="14.2736" height="10.6964" rx="2" transform="matrix(-1 -1.74846e-07 -1.74846e-07 1 329.777 287.842)" fill="#EEBC00"/>
<rect width="9.9915" height="2.13928" rx="1.06964" transform="matrix(-1 -1.74846e-07 -1.74846e-07 1 327.636 299.251)" fill="#EEBC00"/>
<rect width="14.2736" height="10.6964" rx="2" transform="matrix(-1 -1.74846e-07 -1.74846e-07 1 356.051 287.842)" fill="#EEBC00"/>
<rect width="9.9915" height="2.13928" rx="1.06964" transform="matrix(-1 -1.74846e-07 -1.74846e-07 1 353.91 299.251)" fill="#EEBC00"/>
<rect width="14.2736" height="10.6964" rx="2" transform="matrix(-1 -1.74846e-07 -1.74846e-07 1 382.324 287.842)" fill="#EDEDED"/>
<rect width="9.9915" height="2.13928" rx="1.06964" transform="matrix(-1 -1.74846e-07 -1.74846e-07 1 380.183 299.251)" fill="#EDEDED"/>
<rect width="14.2736" height="10.6964" rx="2" transform="matrix(-1 -1.74846e-07 -1.74846e-07 1 408.598 287.842)" fill="#EDEDED"/>
<rect width="9.9915" height="2.13928" rx="1.06964" transform="matrix(-1 -1.74846e-07 -1.74846e-07 1 406.457 299.251)" fill="#EDEDED"/>
<rect width="14.2736" height="10.6964" rx="2" transform="matrix(-1 -1.74846e-07 -1.74846e-07 1 434.872 287.842)" fill="#EEBC00"/>
<rect width="9.9915" height="2.13928" rx="1.06964" transform="matrix(-1 -1.74846e-07 -1.74846e-07 1 432.73 299.251)" fill="#EEBC00"/>
<rect width="14.2736" height="10.6964" rx="2" transform="matrix(-1 -1.74846e-07 -1.74846e-07 1 461.145 287.842)" fill="#EEBC00"/>
<rect width="9.9915" height="2.13928" rx="1.06964" transform="matrix(-1 -1.74846e-07 -1.74846e-07 1 459.004 299.251)" fill="#EEBC00"/>
<rect width="14.2736" height="10.6964" rx="2" transform="matrix(-1 -1.74846e-07 -1.74846e-07 1 487.418 287.842)" fill="#EDEDED"/>
<rect width="9.9915" height="2.13928" rx="1.06964" transform="matrix(-1 -1.74846e-07 -1.74846e-07 1 485.277 299.251)" fill="#EDEDED"/>
<rect width="14.2736" height="10.6964" rx="2" transform="matrix(-1 -1.74846e-07 -1.74846e-07 1 513.692 287.842)" fill="#EDEDED"/>
<rect width="9.9915" height="2.13928" rx="1.06964" transform="matrix(-1 -1.74846e-07 -1.74846e-07 1 511.551 299.251)" fill="#EDEDED"/>
<rect width="14.2736" height="10.6964" rx="2" transform="matrix(-1 -1.74846e-07 -1.74846e-07 1 566.239 287.842)" fill="#EDEDED"/>
<rect width="9.9915" height="2.13928" rx="1.06964" transform="matrix(-1 -1.74846e-07 -1.74846e-07 1 564.098 299.251)" fill="#EDEDED"/>
<rect width="14.2736" height="10.6964" rx="2" transform="matrix(-1 -1.74846e-07 -1.74846e-07 1 592.513 287.842)" fill="#EEBC00"/>
<rect width="9.9915" height="2.13928" rx="1.06964" transform="matrix(-1 -1.74846e-07 -1.74846e-07 1 590.372 299.251)" fill="#EEBC00"/>
<rect width="14.2736" height="10.6964" rx="2" transform="matrix(-1 -1.74846e-07 -1.74846e-07 1 618.786 287.842)" fill="#EEBC00"/>
<rect width="9.9915" height="2.13928" rx="1.06964" transform="matrix(-1 -1.74846e-07 -1.74846e-07 1 616.646 299.251)" fill="#EEBC00"/>
<rect width="14.2736" height="10.6964" rx="2" transform="matrix(-1 -1.74846e-07 -1.74846e-07 1 645.06 287.842)" fill="#EDEDED"/>
<rect width="9.9915" height="2.13928" rx="1.06964" transform="matrix(-1 -1.74846e-07 -1.74846e-07 1 642.919 299.251)" fill="#EDEDED"/>
<rect width="14.2736" height="10.6964" rx="2" transform="matrix(-1 -1.74846e-07 -1.74846e-07 1 671.333 287.842)" fill="#EDEDED"/>
<rect width="9.9915" height="2.13928" rx="1.06964" transform="matrix(-1 -1.74846e-07 -1.74846e-07 1 669.193 299.251)" fill="#EDEDED"/>
<rect width="14.2736" height="10.6964" rx="2" transform="matrix(-1 -1.74846e-07 -1.74846e-07 1 14.4941 319.391)" fill="#EEBC00"/>
<rect width="9.9915" height="2.13928" rx="1.06964" transform="matrix(-1 -1.74846e-07 -1.74846e-07 1 12.353 330.8)" fill="#EEBC00"/>
<rect width="14.2736" height="10.6964" rx="2" transform="matrix(-1 -1.74846e-07 -1.74846e-07 1 40.7681 319.391)" fill="#EEBC00"/>
<rect width="9.9915" height="2.13928" rx="1.06964" transform="matrix(-1 -1.74846e-07 -1.74846e-07 1 38.627 330.8)" fill="#EEBC00"/>
<rect width="14.2736" height="10.6964" rx="2" transform="matrix(-1 -1.74846e-07 -1.74846e-07 1 67.0415 319.391)" fill="#EDEDED"/>
<rect width="9.9915" height="2.13928" rx="1.06964" transform="matrix(-1 -1.74846e-07 -1.74846e-07 1 64.9004 330.8)" fill="#EDEDED"/>
<rect width="14.2736" height="10.6964" rx="2" transform="matrix(-1 -1.74846e-07 -1.74846e-07 1 93.3149 319.391)" fill="#EDEDED"/>
<rect width="9.9915" height="2.13928" rx="1.06964" transform="matrix(-1 -1.74846e-07 -1.74846e-07 1 91.1738 330.8)" fill="#EDEDED"/>
<rect width="14.2736" height="10.6964" rx="2" transform="matrix(-1 -1.74846e-07 -1.74846e-07 1 119.588 319.391)" fill="#EDEDED"/>
<rect width="9.9915" height="2.13928" rx="1.06964" transform="matrix(-1 -1.74846e-07 -1.74846e-07 1 117.447 330.8)" fill="#EDEDED"/>
<rect width="14.2736" height="10.6964" rx="2" transform="matrix(-1 -1.74846e-07 -1.74846e-07 1 172.136 319.391)" fill="#EEBC00"/>
<rect width="9.9915" height="2.13928" rx="1.06964" transform="matrix(-1 -1.74846e-07 -1.74846e-07 1 169.995 330.8)" fill="#EEBC00"/>
<rect width="14.2736" height="10.6964" rx="2" transform="matrix(-1 -1.74846e-07 -1.74846e-07 1 198.409 319.391)" fill="#EEBC00"/>
<rect width="9.9915" height="2.13928" rx="1.06964" transform="matrix(-1 -1.74846e-07 -1.74846e-07 1 196.268 330.8)" fill="#EEBC00"/>
<rect width="14.2736" height="10.6964" rx="2" transform="matrix(-1 -1.74846e-07 -1.74846e-07 1 224.683 319.391)" fill="#EDEDED"/>
<rect width="9.9915" height="2.13928" rx="1.06964" transform="matrix(-1 -1.74846e-07 -1.74846e-07 1 222.542 330.8)" fill="#EDEDED"/>
<rect width="14.2736" height="10.6964" rx="2" transform="matrix(-1 -1.74846e-07 -1.74846e-07 1 250.957 319.391)" fill="#EDEDED"/>
<rect width="9.9915" height="2.13928" rx="1.06964" transform="matrix(-1 -1.74846e-07 -1.74846e-07 1 248.815 330.8)" fill="#EDEDED"/>
<rect width="14.2736" height="10.6964" rx="2" transform="matrix(-1 -1.74846e-07 -1.74846e-07 1 277.23 319.391)" fill="#EEBC00"/>
<rect width="9.9915" height="2.13928" rx="1.06964" transform="matrix(-1 -1.74846e-07 -1.74846e-07 1 275.089 330.8)" fill="#EEBC00"/>
<rect width="14.2736" height="10.6964" rx="2" transform="matrix(-1 -1.74846e-07 -1.74846e-07 1 303.503 319.391)" fill="#EEBC00"/>
<rect width="9.9915" height="2.13928" rx="1.06964" transform="matrix(-1 -1.74846e-07 -1.74846e-07 1 301.362 330.8)" fill="#EEBC00"/>
<rect width="14.2736" height="10.6964" rx="2" transform="matrix(-1 -1.74846e-07 -1.74846e-07 1 329.777 319.391)" fill="#EDEDED"/>
<rect width="9.9915" height="2.13928" rx="1.06964" transform="matrix(-1 -1.74846e-07 -1.74846e-07 1 327.636 330.8)" fill="#EDEDED"/>
<rect width="14.2736" height="10.6964" rx="2" transform="matrix(-1 -1.74846e-07 -1.74846e-07 1 356.051 319.391)" fill="#EDEDED"/>
<rect width="9.9915" height="2.13928" rx="1.06964" transform="matrix(-1 -1.74846e-07 -1.74846e-07 1 353.91 330.8)" fill="#EDEDED"/>
<rect width="14.2736" height="10.6964" rx="2" transform="matrix(-1 -1.74846e-07 -1.74846e-07 1 382.324 319.391)" fill="#EEBC00"/>
<rect width="9.9915" height="2.13928" rx="1.06964" transform="matrix(-1 -1.74846e-07 -1.74846e-07 1 380.183 330.8)" fill="#EEBC00"/>
<rect width="14.2736" height="10.6964" rx="2" transform="matrix(-1 -1.74846e-07 -1.74846e-07 1 408.598 319.391)" fill="#EEBC00"/>
<rect width="9.9915" height="2.13928" rx="1.06964" transform="matrix(-1 -1.74846e-07 -1.74846e-07 1 406.457 330.8)" fill="#EEBC00"/>
<rect width="14.2736" height="10.6964" rx="2" transform="matrix(-1 -1.74846e-07 -1.74846e-07 1 434.872 319.391)" fill="#EDEDED"/>
<rect width="9.9915" height="2.13928" rx="1.06964" transform="matrix(-1 -1.74846e-07 -1.74846e-07 1 432.73 330.8)" fill="#EDEDED"/>
<rect width="14.2736" height="10.6964" rx="2" transform="matrix(-1 -1.74846e-07 -1.74846e-07 1 461.145 319.391)" fill="#EDEDED"/>
<rect width="9.9915" height="2.13928" rx="1.06964" transform="matrix(-1 -1.74846e-07 -1.74846e-07 1 459.004 330.8)" fill="#EDEDED"/>
<rect width="14.2736" height="10.6964" rx="2" transform="matrix(-1 -1.74846e-07 -1.74846e-07 1 487.418 319.391)" fill="#EEBC00"/>
<rect width="9.9915" height="2.13928" rx="1.06964" transform="matrix(-1 -1.74846e-07 -1.74846e-07 1 485.277 330.8)" fill="#EEBC00"/>
<rect width="14.2736" height="10.6964" rx="2" transform="matrix(-1 -1.74846e-07 -1.74846e-07 1 513.692 319.391)" fill="#EEBC00"/>
<rect width="9.9915" height="2.13928" rx="1.06964" transform="matrix(-1 -1.74846e-07 -1.74846e-07 1 511.551 330.8)" fill="#EEBC00"/>
<rect width="14.2736" height="10.6964" rx="2" transform="matrix(-1 -1.74846e-07 -1.74846e-07 1 566.239 319.391)" fill="#EDEDED"/>
<rect width="9.9915" height="2.13928" rx="1.06964" transform="matrix(-1 -1.74846e-07 -1.74846e-07 1 564.098 330.8)" fill="#EDEDED"/>
<rect width="14.2736" height="10.6964" rx="2" transform="matrix(-1 -1.74846e-07 -1.74846e-07 1 592.513 319.391)" fill="#EDEDED"/>
<rect width="9.9915" height="2.13928" rx="1.06964" transform="matrix(-1 -1.74846e-07 -1.74846e-07 1 590.372 330.8)" fill="#EDEDED"/>
<rect width="14.2736" height="10.6964" rx="2" transform="matrix(-1 -1.74846e-07 -1.74846e-07 1 618.786 319.391)" fill="#EDEDED"/>
<rect width="9.9915" height="2.13928" rx="1.06964" transform="matrix(-1 -1.74846e-07 -1.74846e-07 1 616.646 330.8)" fill="#EDEDED"/>
<rect width="14.2736" height="10.6964" rx="2" transform="matrix(-1 -1.74846e-07 -1.74846e-07 1 645.06 319.391)" fill="#EEBC00"/>
<rect width="9.9915" height="2.13928" rx="1.06964" transform="matrix(-1 -1.74846e-07 -1.74846e-07 1 642.919 330.8)" fill="#EEBC00"/>
<rect width="14.2736" height="10.6964" rx="2" transform="matrix(-1 -1.74846e-07 -1.74846e-07 1 671.333 319.391)" fill="#EEBC00"/>
<rect width="9.9915" height="2.13928" rx="1.06964" transform="matrix(-1 -1.74846e-07 -1.74846e-07 1 669.193 330.8)" fill="#EEBC00"/>
<rect width="14.2736" height="10.6964" rx="2" transform="matrix(-1 -1.74846e-07 -1.74846e-07 1 14.4941 350.939)" fill="#EDEDED"/>
<rect width="9.9915" height="2.13928" rx="1.06964" transform="matrix(-1 -1.74846e-07 -1.74846e-07 1 12.353 362.349)" fill="#EDEDED"/>
<rect width="14.2736" height="10.6964" rx="2" transform="matrix(-1 -1.74846e-07 -1.74846e-07 1 40.7681 350.939)" fill="#EDEDED"/>
<rect width="9.9915" height="2.13928" rx="1.06964" transform="matrix(-1 -1.74846e-07 -1.74846e-07 1 38.627 362.349)" fill="#EDEDED"/>
<rect width="14.2736" height="10.6964" rx="2" transform="matrix(-1 -1.74846e-07 -1.74846e-07 1 67.0415 350.939)" fill="#EEBC00"/>
<rect width="9.9915" height="2.13928" rx="1.06964" transform="matrix(-1 -1.74846e-07 -1.74846e-07 1 64.9004 362.349)" fill="#EEBC00"/>
<rect width="14.2736" height="10.6964" rx="2" transform="matrix(-1 -1.74846e-07 -1.74846e-07 1 93.3149 350.939)" fill="#EEBC00"/>
<rect width="9.9915" height="2.13928" rx="1.06964" transform="matrix(-1 -1.74846e-07 -1.74846e-07 1 91.1738 362.349)" fill="#EEBC00"/>
<rect width="14.2736" height="10.6964" rx="2" transform="matrix(-1 -1.74846e-07 -1.74846e-07 1 119.588 350.939)" fill="#EDEDED"/>
<rect width="9.9915" height="2.13928" rx="1.06964" transform="matrix(-1 -1.74846e-07 -1.74846e-07 1 117.447 362.349)" fill="#EDEDED"/>
<rect width="14.2736" height="10.6964" rx="2" transform="matrix(-1 -1.74846e-07 -1.74846e-07 1 172.136 350.939)" fill="#EDEDED"/>
<rect width="9.9915" height="2.13928" rx="1.06964" transform="matrix(-1 -1.74846e-07 -1.74846e-07 1 169.995 362.349)" fill="#EDEDED"/>
<rect width="14.2736" height="10.6964" rx="2" transform="matrix(-1 -1.74846e-07 -1.74846e-07 1 198.409 350.939)" fill="#EDEDED"/>
<rect width="9.9915" height="2.13928" rx="1.06964" transform="matrix(-1 -1.74846e-07 -1.74846e-07 1 196.268 362.349)" fill="#EDEDED"/>
<rect width="14.2736" height="10.6964" rx="2" transform="matrix(-1 -1.74846e-07 -1.74846e-07 1 224.683 350.939)" fill="#EEBC00"/>
<rect width="9.9915" height="2.13928" rx="1.06964" transform="matrix(-1 -1.74846e-07 -1.74846e-07 1 222.542 362.349)" fill="#EEBC00"/>
<rect width="14.2736" height="10.6964" rx="2" transform="matrix(-1 -1.74846e-07 -1.74846e-07 1 250.957 350.939)" fill="#EEBC00"/>
<rect width="9.9915" height="2.13928" rx="1.06964" transform="matrix(-1 -1.74846e-07 -1.74846e-07 1 248.815 362.349)" fill="#EEBC00"/>
<rect width="14.2736" height="10.6964" rx="2" transform="matrix(-1 -1.74846e-07 -1.74846e-07 1 277.23 350.939)" fill="#EDEDED"/>
<rect width="9.9915" height="2.13928" rx="1.06964" transform="matrix(-1 -1.74846e-07 -1.74846e-07 1 275.089 362.349)" fill="#EDEDED"/>
<rect width="14.2736" height="10.6964" rx="2" transform="matrix(-1 -1.74846e-07 -1.74846e-07 1 303.503 350.939)" fill="#EDEDED"/>
<rect width="9.9915" height="2.13928" rx="1.06964" transform="matrix(-1 -1.74846e-07 -1.74846e-07 1 301.362 362.349)" fill="#EDEDED"/>
<rect width="14.2736" height="10.6964" rx="2" transform="matrix(-1 -1.74846e-07 -1.74846e-07 1 329.777 350.939)" fill="#EEBC00"/>
<rect width="9.9915" height="2.13928" rx="1.06964" transform="matrix(-1 -1.74846e-07 -1.74846e-07 1 327.636 362.349)" fill="#EEBC00"/>
<rect width="14.2736" height="10.6964" rx="2" transform="matrix(-1 -1.74846e-07 -1.74846e-07 1 356.051 350.939)" fill="#EEBC00"/>
<rect width="9.9915" height="2.13928" rx="1.06964" transform="matrix(-1 -1.74846e-07 -1.74846e-07 1 353.91 362.349)" fill="#EEBC00"/>
<rect width="14.2736" height="10.6964" rx="2" transform="matrix(-1 -1.74846e-07 -1.74846e-07 1 382.324 350.939)" fill="#EDEDED"/>
<rect width="9.9915" height="2.13928" rx="1.06964" transform="matrix(-1 -1.74846e-07 -1.74846e-07 1 380.183 362.349)" fill="#EDEDED"/>
<rect width="14.2736" height="10.6964" rx="2" transform="matrix(-1 -1.74846e-07 -1.74846e-07 1 408.598 350.939)" fill="#EDEDED"/>
<rect width="9.9915" height="2.13928" rx="1.06964" transform="matrix(-1 -1.74846e-07 -1.74846e-07 1 406.457 362.349)" fill="#EDEDED"/>
<rect width="14.2736" height="10.6964" rx="2" transform="matrix(-1 -1.74846e-07 -1.74846e-07 1 434.872 350.939)" fill="#EEBC00"/>
<rect width="9.9915" height="2.13928" rx="1.06964" transform="matrix(-1 -1.74846e-07 -1.74846e-07 1 432.73 362.349)" fill="#EEBC00"/>
<rect width="14.2736" height="10.6964" rx="2" transform="matrix(-1 -1.74846e-07 -1.74846e-07 1 461.145 350.939)" fill="#EEBC00"/>
<rect width="9.9915" height="2.13928" rx="1.06964" transform="matrix(-1 -1.74846e-07 -1.74846e-07 1 459.004 362.349)" fill="#EEBC00"/>
<rect width="14.2736" height="10.6964" rx="2" transform="matrix(-1 -1.74846e-07 -1.74846e-07 1 487.418 350.939)" fill="#EDEDED"/>
<rect width="9.9915" height="2.13928" rx="1.06964" transform="matrix(-1 -1.74846e-07 -1.74846e-07 1 485.277 362.349)" fill="#EDEDED"/>
<rect width="14.2736" height="10.6964" rx="2" transform="matrix(-1 -1.74846e-07 -1.74846e-07 1 513.692 350.939)" fill="#EDEDED"/>
<rect width="9.9915" height="2.13928" rx="1.06964" transform="matrix(-1 -1.74846e-07 -1.74846e-07 1 511.551 362.349)" fill="#EDEDED"/>
<rect width="14.2736" height="10.6964" rx="2" transform="matrix(-1 -1.74846e-07 -1.74846e-07 1 566.239 350.939)" fill="#EDEDED"/>
<rect width="9.9915" height="2.13928" rx="1.06964" transform="matrix(-1 -1.74846e-07 -1.74846e-07 1 564.098 362.349)" fill="#EDEDED"/>
<rect width="14.2736" height="10.6964" rx="2" transform="matrix(-1 -1.74846e-07 -1.74846e-07 1 592.513 350.939)" fill="#EEBC00"/>
<rect width="9.9915" height="2.13928" rx="1.06964" transform="matrix(-1 -1.74846e-07 -1.74846e-07 1 590.372 362.349)" fill="#EEBC00"/>
<rect width="14.2736" height="10.6964" rx="2" transform="matrix(-1 -1.74846e-07 -1.74846e-07 1 618.786 350.939)" fill="#EEBC00"/>
<rect width="9.9915" height="2.13928" rx="1.06964" transform="matrix(-1 -1.74846e-07 -1.74846e-07 1 616.646 362.349)" fill="#EEBC00"/>
<rect width="14.2736" height="10.6964" rx="2" transform="matrix(-1 -1.74846e-07 -1.74846e-07 1 645.06 350.939)" fill="#EDEDED"/>
<rect width="9.9915" height="2.13928" rx="1.06964" transform="matrix(-1 -1.74846e-07 -1.74846e-07 1 642.919 362.349)" fill="#EDEDED"/>
<rect width="14.2736" height="10.6964" rx="2" transform="matrix(-1 -1.74846e-07 -1.74846e-07 1 671.333 350.939)" fill="#EDEDED"/>
<rect width="9.9915" height="2.13928" rx="1.06964" transform="matrix(-1 -1.74846e-07 -1.74846e-07 1 669.193 362.349)" fill="#EDEDED"/>
<rect width="14.2736" height="10.6964" rx="2" transform="matrix(-1 -1.74846e-07 -1.74846e-07 1 14.4941 382.488)" fill="#EEBC00"/>
<rect width="9.9915" height="2.13928" rx="1.06964" transform="matrix(-1 -1.74846e-07 -1.74846e-07 1 12.353 393.897)" fill="#EEBC00"/>
<rect width="14.2736" height="10.6964" rx="2" transform="matrix(-1 -1.74846e-07 -1.74846e-07 1 40.7681 382.488)" fill="#EEBC00"/>
<rect width="9.9915" height="2.13928" rx="1.06964" transform="matrix(-1 -1.74846e-07 -1.74846e-07 1 38.627 393.897)" fill="#EEBC00"/>
<rect width="14.2736" height="10.6964" rx="2" transform="matrix(-1 -1.74846e-07 -1.74846e-07 1 67.0415 382.488)" fill="#EDEDED"/>
<rect width="9.9915" height="2.13928" rx="1.06964" transform="matrix(-1 -1.74846e-07 -1.74846e-07 1 64.9004 393.897)" fill="#EDEDED"/>
<rect width="14.2736" height="10.6964" rx="2" transform="matrix(-1 -1.74846e-07 -1.74846e-07 1 93.3149 382.488)" fill="#EDEDED"/>
<rect width="9.9915" height="2.13928" rx="1.06964" transform="matrix(-1 -1.74846e-07 -1.74846e-07 1 91.1738 393.897)" fill="#EDEDED"/>
<rect width="14.2736" height="10.6964" rx="2" transform="matrix(-1 -1.74846e-07 -1.74846e-07 1 119.588 382.488)" fill="#EDEDED"/>
<rect width="9.9915" height="2.13928" rx="1.06964" transform="matrix(-1 -1.74846e-07 -1.74846e-07 1 117.447 393.897)" fill="#EDEDED"/>
<rect width="14.2736" height="10.6964" rx="2" transform="matrix(-1 -1.74846e-07 -1.74846e-07 1 172.136 382.488)" fill="#EEBC00"/>
<rect width="9.9915" height="2.13928" rx="1.06964" transform="matrix(-1 -1.74846e-07 -1.74846e-07 1 169.995 393.897)" fill="#EEBC00"/>
<rect width="14.2736" height="10.6964" rx="2" transform="matrix(-1 -1.74846e-07 -1.74846e-07 1 198.409 382.488)" fill="#EEBC00"/>
<rect width="9.9915" height="2.13928" rx="1.06964" transform="matrix(-1 -1.74846e-07 -1.74846e-07 1 196.268 393.897)" fill="#EEBC00"/>
<rect width="14.2736" height="10.6964" rx="2" transform="matrix(-1 -1.74846e-07 -1.74846e-07 1 224.683 382.488)" fill="#EDEDED"/>
<rect width="9.9915" height="2.13928" rx="1.06964" transform="matrix(-1 -1.74846e-07 -1.74846e-07 1 222.542 393.897)" fill="#EDEDED"/>
<rect width="14.2736" height="10.6964" rx="2" transform="matrix(-1 -1.74846e-07 -1.74846e-07 1 250.957 382.488)" fill="#EDEDED"/>
<rect width="9.9915" height="2.13928" rx="1.06964" transform="matrix(-1 -1.74846e-07 -1.74846e-07 1 248.815 393.897)" fill="#EDEDED"/>
<rect width="14.2736" height="10.6964" rx="2" transform="matrix(-1 -1.74846e-07 -1.74846e-07 1 277.23 382.488)" fill="#EEBC00"/>
<rect width="9.9915" height="2.13928" rx="1.06964" transform="matrix(-1 -1.74846e-07 -1.74846e-07 1 275.089 393.897)" fill="#EEBC00"/>
<rect width="14.2736" height="10.6964" rx="2" transform="matrix(-1 -1.74846e-07 -1.74846e-07 1 303.503 382.488)" fill="#EEBC00"/>
<rect width="9.9915" height="2.13928" rx="1.06964" transform="matrix(-1 -1.74846e-07 -1.74846e-07 1 301.362 393.897)" fill="#EEBC00"/>
<rect width="14.2736" height="10.6964" rx="2" transform="matrix(-1 -1.74846e-07 -1.74846e-07 1 329.777 382.488)" fill="#EDEDED"/>
<rect width="9.9915" height="2.13928" rx="1.06964" transform="matrix(-1 -1.74846e-07 -1.74846e-07 1 327.636 393.897)" fill="#EDEDED"/>
<rect width="14.2736" height="10.6964" rx="2" transform="matrix(-1 -1.74846e-07 -1.74846e-07 1 356.051 382.488)" fill="#EDEDED"/>
<rect width="9.9915" height="2.13928" rx="1.06964" transform="matrix(-1 -1.74846e-07 -1.74846e-07 1 353.91 393.897)" fill="#EDEDED"/>
<rect width="14.2736" height="10.6964" rx="2" transform="matrix(-1 -1.74846e-07 -1.74846e-07 1 382.324 382.488)" fill="#EEBC00"/>
<rect width="9.9915" height="2.13928" rx="1.06964" transform="matrix(-1 -1.74846e-07 -1.74846e-07 1 380.183 393.897)" fill="#EEBC00"/>
<rect width="14.2736" height="10.6964" rx="2" transform="matrix(-1 -1.74846e-07 -1.74846e-07 1 408.598 382.488)" fill="#EEBC00"/>
<rect width="9.9915" height="2.13928" rx="1.06964" transform="matrix(-1 -1.74846e-07 -1.74846e-07 1 406.457 393.897)" fill="#EEBC00"/>
<rect width="14.2736" height="10.6964" rx="2" transform="matrix(-1 -1.74846e-07 -1.74846e-07 1 434.872 382.488)" fill="#EDEDED"/>
<rect width="9.9915" height="2.13928" rx="1.06964" transform="matrix(-1 -1.74846e-07 -1.74846e-07 1 432.73 393.897)" fill="#EDEDED"/>
<rect width="14.2736" height="10.6964" rx="2" transform="matrix(-1 -1.74846e-07 -1.74846e-07 1 461.145 382.488)" fill="#EDEDED"/>
<rect width="9.9915" height="2.13928" rx="1.06964" transform="matrix(-1 -1.74846e-07 -1.74846e-07 1 459.004 393.897)" fill="#EDEDED"/>
<rect width="14.2736" height="10.6964" rx="2" transform="matrix(-1 -1.74846e-07 -1.74846e-07 1 487.418 382.488)" fill="#EEBC00"/>
<rect width="9.9915" height="2.13928" rx="1.06964" transform="matrix(-1 -1.74846e-07 -1.74846e-07 1 485.277 393.897)" fill="#EEBC00"/>
<rect width="14.2736" height="10.6964" rx="2" transform="matrix(-1 -1.74846e-07 -1.74846e-07 1 513.692 382.488)" fill="#EEBC00"/>
<rect width="9.9915" height="2.13928" rx="1.06964" transform="matrix(-1 -1.74846e-07 -1.74846e-07 1 511.551 393.897)" fill="#EEBC00"/>
<rect width="14.2736" height="10.6964" rx="2" transform="matrix(-1 -1.74846e-07 -1.74846e-07 1 566.239 382.488)" fill="#EDEDED"/>
<rect width="9.9915" height="2.13928" rx="1.06964" transform="matrix(-1 -1.74846e-07 -1.74846e-07 1 564.098 393.897)" fill="#EDEDED"/>
<rect width="14.2736" height="10.6964" rx="2" transform="matrix(-1 -1.74846e-07 -1.74846e-07 1 592.513 382.488)" fill="#EDEDED"/>
<rect width="9.9915" height="2.13928" rx="1.06964" transform="matrix(-1 -1.74846e-07 -1.74846e-07 1 590.372 393.897)" fill="#EDEDED"/>
<rect width="14.2736" height="10.6964" rx="2" transform="matrix(-1 -1.74846e-07 -1.74846e-07 1 618.786 382.488)" fill="#EDEDED"/>
<rect width="9.9915" height="2.13928" rx="1.06964" transform="matrix(-1 -1.74846e-07 -1.74846e-07 1 616.646 393.897)" fill="#EDEDED"/>
<rect width="14.2736" height="10.6964" rx="2" transform="matrix(-1 -1.74846e-07 -1.74846e-07 1 645.06 382.488)" fill="#EEBC00"/>
<rect width="9.9915" height="2.13928" rx="1.06964" transform="matrix(-1 -1.74846e-07 -1.74846e-07 1 642.919 393.897)" fill="#EEBC00"/>
<rect width="14.2736" height="10.6964" rx="2" transform="matrix(-1 -1.74846e-07 -1.74846e-07 1 671.333 382.488)" fill="#EEBC00"/>
<rect width="9.9915" height="2.13928" rx="1.06964" transform="matrix(-1 -1.74846e-07 -1.74846e-07 1 669.193 393.897)" fill="#EEBC00"/>
<rect width="14.2736" height="10.6964" rx="2" transform="matrix(-1 -1.74846e-07 -1.74846e-07 1 14.4941 414.037)" fill="#EDEDED"/>
<rect width="9.9915" height="2.13928" rx="1.06964" transform="matrix(-1 -1.74846e-07 -1.74846e-07 1 12.353 425.446)" fill="#EDEDED"/>
<rect width="14.2736" height="10.6964" rx="2" transform="matrix(-1 -1.74846e-07 -1.74846e-07 1 40.7681 414.037)" fill="#EDEDED"/>
<rect width="9.9915" height="2.13928" rx="1.06964" transform="matrix(-1 -1.74846e-07 -1.74846e-07 1 38.627 425.446)" fill="#EDEDED"/>
<rect width="14.2736" height="10.6964" rx="2" transform="matrix(-1 -1.74846e-07 -1.74846e-07 1 67.0415 414.037)" fill="#EEBC00"/>
<rect width="9.9915" height="2.13928" rx="1.06964" transform="matrix(-1 -1.74846e-07 -1.74846e-07 1 64.9004 425.446)" fill="#EEBC00"/>
<rect width="14.2736" height="10.6964" rx="2" transform="matrix(-1 -1.74846e-07 -1.74846e-07 1 93.3149 414.037)" fill="#EEBC00"/>
<rect width="9.9915" height="2.13928" rx="1.06964" transform="matrix(-1 -1.74846e-07 -1.74846e-07 1 91.1738 425.446)" fill="#EEBC00"/>
<rect width="14.2736" height="10.6964" rx="2" transform="matrix(-1 -1.74846e-07 -1.74846e-07 1 119.588 414.037)" fill="#EDEDED"/>
<rect width="9.9915" height="2.13928" rx="1.06964" transform="matrix(-1 -1.74846e-07 -1.74846e-07 1 117.447 425.446)" fill="#EDEDED"/>
<rect width="14.2736" height="10.6964" rx="2" transform="matrix(-1 -1.74846e-07 -1.74846e-07 1 172.136 414.037)" fill="#EDEDED"/>
<rect width="9.9915" height="2.13928" rx="1.06964" transform="matrix(-1 -1.74846e-07 -1.74846e-07 1 169.995 425.446)" fill="#EDEDED"/>
<rect width="14.2736" height="10.6964" rx="2" transform="matrix(-1 -1.74846e-07 -1.74846e-07 1 198.409 414.037)" fill="#EDEDED"/>
<rect width="9.9915" height="2.13928" rx="1.06964" transform="matrix(-1 -1.74846e-07 -1.74846e-07 1 196.268 425.446)" fill="#EDEDED"/>
<rect width="14.2736" height="10.6964" rx="2" transform="matrix(-1 -1.74846e-07 -1.74846e-07 1 224.683 414.037)" fill="#EEBC00"/>
<rect width="9.9915" height="2.13928" rx="1.06964" transform="matrix(-1 -1.74846e-07 -1.74846e-07 1 222.542 425.446)" fill="#EEBC00"/>
<rect width="14.2736" height="10.6964" rx="2" transform="matrix(-1 -1.74846e-07 -1.74846e-07 1 250.957 414.037)" fill="#EEBC00"/>
<rect width="9.9915" height="2.13928" rx="1.06964" transform="matrix(-1 -1.74846e-07 -1.74846e-07 1 248.815 425.446)" fill="#EEBC00"/>
<rect width="14.2736" height="10.6964" rx="2" transform="matrix(-1 -1.74846e-07 -1.74846e-07 1 277.23 414.037)" fill="#EDEDED"/>
<rect width="9.9915" height="2.13928" rx="1.06964" transform="matrix(-1 -1.74846e-07 -1.74846e-07 1 275.089 425.446)" fill="#EDEDED"/>
<rect width="14.2736" height="10.6964" rx="2" transform="matrix(-1 -1.74846e-07 -1.74846e-07 1 303.503 414.037)" fill="#EDEDED"/>
<rect width="9.9915" height="2.13928" rx="1.06964" transform="matrix(-1 -1.74846e-07 -1.74846e-07 1 301.362 425.446)" fill="#EDEDED"/>
<rect width="14.2736" height="10.6964" rx="2" transform="matrix(-1 -1.74846e-07 -1.74846e-07 1 329.777 414.037)" fill="#EEBC00"/>
<rect width="9.9915" height="2.13928" rx="1.06964" transform="matrix(-1 -1.74846e-07 -1.74846e-07 1 327.636 425.446)" fill="#EEBC00"/>
<rect width="14.2736" height="10.6964" rx="2" transform="matrix(-1 -1.74846e-07 -1.74846e-07 1 356.051 414.037)" fill="#EEBC00"/>
<rect width="9.9915" height="2.13928" rx="1.06964" transform="matrix(-1 -1.74846e-07 -1.74846e-07 1 353.91 425.446)" fill="#EEBC00"/>
<rect width="14.2736" height="10.6964" rx="2" transform="matrix(-1 -1.74846e-07 -1.74846e-07 1 382.324 414.037)" fill="#EDEDED"/>
<rect width="9.9915" height="2.13928" rx="1.06964" transform="matrix(-1 -1.74846e-07 -1.74846e-07 1 380.183 425.446)" fill="#EDEDED"/>
<rect width="14.2736" height="10.6964" rx="2" transform="matrix(-1 -1.74846e-07 -1.74846e-07 1 408.598 414.037)" fill="#EDEDED"/>
<rect width="9.9915" height="2.13928" rx="1.06964" transform="matrix(-1 -1.74846e-07 -1.74846e-07 1 406.457 425.446)" fill="#EDEDED"/>
<rect width="14.2736" height="10.6964" rx="2" transform="matrix(-1 -1.74846e-07 -1.74846e-07 1 434.872 414.037)" fill="#EEBC00"/>
<rect width="9.9915" height="2.13928" rx="1.06964" transform="matrix(-1 -1.74846e-07 -1.74846e-07 1 432.73 425.446)" fill="#EEBC00"/>
<rect width="14.2736" height="10.6964" rx="2" transform="matrix(-1 -1.74846e-07 -1.74846e-07 1 461.145 414.037)" fill="#EEBC00"/>
<rect width="9.9915" height="2.13928" rx="1.06964" transform="matrix(-1 -1.74846e-07 -1.74846e-07 1 459.004 425.446)" fill="#EEBC00"/>
<rect width="14.2736" height="10.6964" rx="2" transform="matrix(-1 -1.74846e-07 -1.74846e-07 1 487.418 414.037)" fill="#EDEDED"/>
<rect width="9.9915" height="2.13928" rx="1.06964" transform="matrix(-1 -1.74846e-07 -1.74846e-07 1 485.277 425.446)" fill="#EDEDED"/>
<rect width="14.2736" height="10.6964" rx="2" transform="matrix(-1 -1.74846e-07 -1.74846e-07 1 513.692 414.037)" fill="#EDEDED"/>
<rect width="9.9915" height="2.13928" rx="1.06964" transform="matrix(-1 -1.74846e-07 -1.74846e-07 1 511.551 425.446)" fill="#EDEDED"/>
<rect width="14.2736" height="10.6964" rx="2" transform="matrix(-1 -1.74846e-07 -1.74846e-07 1 566.239 414.037)" fill="#EDEDED"/>
<rect width="9.9915" height="2.13928" rx="1.06964" transform="matrix(-1 -1.74846e-07 -1.74846e-07 1 564.098 425.446)" fill="#EDEDED"/>
<rect width="14.2736" height="10.6964" rx="2" transform="matrix(-1 -1.74846e-07 -1.74846e-07 1 592.513 414.037)" fill="#EEBC00"/>
<rect width="9.9915" height="2.13928" rx="1.06964" transform="matrix(-1 -1.74846e-07 -1.74846e-07 1 590.372 425.446)" fill="#EEBC00"/>
<rect width="14.2736" height="10.6964" rx="2" transform="matrix(-1 -1.74846e-07 -1.74846e-07 1 618.786 414.037)" fill="#EEBC00"/>
<rect width="9.9915" height="2.13928" rx="1.06964" transform="matrix(-1 -1.74846e-07 -1.74846e-07 1 616.646 425.446)" fill="#EEBC00"/>
<rect width="14.2736" height="10.6964" rx="2" transform="matrix(-1 -1.74846e-07 -1.74846e-07 1 645.06 414.037)" fill="#EDEDED"/>
<rect width="9.9915" height="2.13928" rx="1.06964" transform="matrix(-1 -1.74846e-07 -1.74846e-07 1 642.919 425.446)" fill="#EDEDED"/>
<rect width="14.2736" height="10.6964" rx="2" transform="matrix(-1 -1.74846e-07 -1.74846e-07 1 671.333 414.037)" fill="#EDEDED"/>
<rect width="9.9915" height="2.13928" rx="1.06964" transform="matrix(-1 -1.74846e-07 -1.74846e-07 1 669.193 425.446)" fill="#EDEDED"/>
<rect width="14.2736" height="10.6964" rx="2" transform="matrix(-1 -1.74846e-07 -1.74846e-07 1 14.4941 445.586)" fill="#EEBC00"/>
<rect width="9.9915" height="2.13928" rx="1.06964" transform="matrix(-1 -1.74846e-07 -1.74846e-07 1 12.353 456.995)" fill="#EEBC00"/>
<rect width="14.2736" height="10.6964" rx="2" transform="matrix(-1 -1.74846e-07 -1.74846e-07 1 40.7681 445.586)" fill="#EEBC00"/>
<rect width="9.9915" height="2.13928" rx="1.06964" transform="matrix(-1 -1.74846e-07 -1.74846e-07 1 38.627 456.995)" fill="#EEBC00"/>
<rect width="14.2736" height="10.6964" rx="2" transform="matrix(-1 -1.74846e-07 -1.74846e-07 1 67.0415 445.586)" fill="#EDEDED"/>
<rect width="9.9915" height="2.13928" rx="1.06964" transform="matrix(-1 -1.74846e-07 -1.74846e-07 1 64.9004 456.995)" fill="#EDEDED"/>
<rect width="14.2736" height="10.6964" rx="2" transform="matrix(-1 -1.74846e-07 -1.74846e-07 1 93.3149 445.586)" fill="#EDEDED"/>
<rect width="9.9915" height="2.13928" rx="1.06964" transform="matrix(-1 -1.74846e-07 -1.74846e-07 1 91.1738 456.995)" fill="#EDEDED"/>
<rect width="14.2736" height="10.6964" rx="2" transform="matrix(-1 -1.74846e-07 -1.74846e-07 1 119.588 445.586)" fill="#EDEDED"/>
<rect width="9.9915" height="2.13928" rx="1.06964" transform="matrix(-1 -1.74846e-07 -1.74846e-07 1 117.447 456.995)" fill="#EDEDED"/>
<rect width="14.2736" height="10.6964" rx="2" transform="matrix(-1 -1.74846e-07 -1.74846e-07 1 172.136 445.586)" fill="#EEBC00"/>
<rect width="9.9915" height="2.13928" rx="1.06964" transform="matrix(-1 -1.74846e-07 -1.74846e-07 1 169.995 456.995)" fill="#EEBC00"/>
<rect width="14.2736" height="10.6964" rx="2" transform="matrix(-1 -1.74846e-07 -1.74846e-07 1 198.409 445.586)" fill="#EEBC00"/>
<rect width="9.9915" height="2.13928" rx="1.06964" transform="matrix(-1 -1.74846e-07 -1.74846e-07 1 196.268 456.995)" fill="#EEBC00"/>
<rect width="14.2736" height="10.6964" rx="2" transform="matrix(-1 -1.74846e-07 -1.74846e-07 1 224.683 445.586)" fill="#EDEDED"/>
<rect width="9.9915" height="2.13928" rx="1.06964" transform="matrix(-1 -1.74846e-07 -1.74846e-07 1 222.542 456.995)" fill="#EDEDED"/>
<rect width="14.2736" height="10.6964" rx="2" transform="matrix(-1 -1.74846e-07 -1.74846e-07 1 250.957 445.586)" fill="#EDEDED"/>
<rect width="9.9915" height="2.13928" rx="1.06964" transform="matrix(-1 -1.74846e-07 -1.74846e-07 1 248.815 456.995)" fill="#EDEDED"/>
<rect width="14.2736" height="10.6964" rx="2" transform="matrix(-1 -1.74846e-07 -1.74846e-07 1 277.23 445.586)" fill="#EEBC00"/>
<rect width="9.9915" height="2.13928" rx="1.06964" transform="matrix(-1 -1.74846e-07 -1.74846e-07 1 275.089 456.995)" fill="#EEBC00"/>
<rect width="14.2736" height="10.6964" rx="2" transform="matrix(-1 -1.74846e-07 -1.74846e-07 1 303.503 445.586)" fill="#EEBC00"/>
<rect width="9.9915" height="2.13928" rx="1.06964" transform="matrix(-1 -1.74846e-07 -1.74846e-07 1 301.362 456.995)" fill="#EEBC00"/>
<rect width="14.2736" height="10.6964" rx="2" transform="matrix(-1 -1.74846e-07 -1.74846e-07 1 329.777 445.586)" fill="#EDEDED"/>
<rect width="9.9915" height="2.13928" rx="1.06964" transform="matrix(-1 -1.74846e-07 -1.74846e-07 1 327.636 456.995)" fill="#EDEDED"/>
<rect width="14.2736" height="10.6964" rx="2" transform="matrix(-1 -1.74846e-07 -1.74846e-07 1 356.051 445.586)" fill="#EDEDED"/>
<rect width="9.9915" height="2.13928" rx="1.06964" transform="matrix(-1 -1.74846e-07 -1.74846e-07 1 353.91 456.995)" fill="#EDEDED"/>
<rect width="14.2736" height="10.6964" rx="2" transform="matrix(-1 -1.74846e-07 -1.74846e-07 1 382.324 445.586)" fill="#EEBC00"/>
<rect width="9.9915" height="2.13928" rx="1.06964" transform="matrix(-1 -1.74846e-07 -1.74846e-07 1 380.183 456.995)" fill="#EEBC00"/>
<rect width="14.2736" height="10.6964" rx="2" transform="matrix(-1 -1.74846e-07 -1.74846e-07 1 408.598 445.586)" fill="#EEBC00"/>
<rect width="9.9915" height="2.13928" rx="1.06964" transform="matrix(-1 -1.74846e-07 -1.74846e-07 1 406.457 456.995)" fill="#EEBC00"/>
<rect width="14.2736" height="10.6964" rx="2" transform="matrix(-1 -1.74846e-07 -1.74846e-07 1 434.872 445.586)" fill="#EDEDED"/>
<rect width="9.9915" height="2.13928" rx="1.06964" transform="matrix(-1 -1.74846e-07 -1.74846e-07 1 432.73 456.995)" fill="#EDEDED"/>
<rect width="14.2736" height="10.6964" rx="2" transform="matrix(-1 -1.74846e-07 -1.74846e-07 1 461.145 445.586)" fill="#EDEDED"/>
<rect width="9.9915" height="2.13928" rx="1.06964" transform="matrix(-1 -1.74846e-07 -1.74846e-07 1 459.004 456.995)" fill="#EDEDED"/>
<rect width="14.2736" height="10.6964" rx="2" transform="matrix(-1 -1.74846e-07 -1.74846e-07 1 487.418 445.586)" fill="#EEBC00"/>
<rect width="9.9915" height="2.13928" rx="1.06964" transform="matrix(-1 -1.74846e-07 -1.74846e-07 1 485.277 456.995)" fill="#EEBC00"/>
<rect width="14.2736" height="10.6964" rx="2" transform="matrix(-1 -1.74846e-07 -1.74846e-07 1 513.692 445.586)" fill="#EEBC00"/>
<rect width="9.9915" height="2.13928" rx="1.06964" transform="matrix(-1 -1.74846e-07 -1.74846e-07 1 511.551 456.995)" fill="#EEBC00"/>
<rect width="14.2736" height="10.6964" rx="2" transform="matrix(-1 -1.74846e-07 -1.74846e-07 1 566.239 445.586)" fill="#EDEDED"/>
<rect width="9.9915" height="2.13928" rx="1.06964" transform="matrix(-1 -1.74846e-07 -1.74846e-07 1 564.098 456.995)" fill="#EDEDED"/>
<rect width="14.2736" height="10.6964" rx="2" transform="matrix(-1 -1.74846e-07 -1.74846e-07 1 592.513 445.586)" fill="#EDEDED"/>
<rect width="9.9915" height="2.13928" rx="1.06964" transform="matrix(-1 -1.74846e-07 -1.74846e-07 1 590.372 456.995)" fill="#EDEDED"/>
<rect width="14.2736" height="10.6964" rx="2" transform="matrix(-1 -1.74846e-07 -1.74846e-07 1 618.786 445.586)" fill="#EDEDED"/>
<rect width="9.9915" height="2.13928" rx="1.06964" transform="matrix(-1 -1.74846e-07 -1.74846e-07 1 616.646 456.995)" fill="#EDEDED"/>
<rect width="14.2736" height="10.6964" rx="2" transform="matrix(-1 -1.74846e-07 -1.74846e-07 1 645.06 445.586)" fill="#EEBC00"/>
<rect width="9.9915" height="2.13928" rx="1.06964" transform="matrix(-1 -1.74846e-07 -1.74846e-07 1 642.919 456.995)" fill="#EEBC00"/>
<rect width="14.2736" height="10.6964" rx="2" transform="matrix(-1 -1.74846e-07 -1.74846e-07 1 671.333 445.586)" fill="#EEBC00"/>
<rect width="9.9915" height="2.13928" rx="1.06964" transform="matrix(-1 -1.74846e-07 -1.74846e-07 1 669.193 456.995)" fill="#EEBC00"/>
<rect width="14.2736" height="10.6964" rx="2" transform="matrix(-1 -1.74846e-07 -1.74846e-07 1 40.7681 477.135)" fill="#EDEDED"/>
<rect width="9.9915" height="2.13928" rx="1.06964" transform="matrix(-1 -1.74846e-07 -1.74846e-07 1 38.627 488.544)" fill="#EDEDED"/>
<rect width="14.2736" height="10.6964" rx="2" transform="matrix(-1 -1.74846e-07 -1.74846e-07 1 67.0415 477.135)" fill="#4FD2CF"/>
<rect width="9.9915" height="2.13929" rx="1.06964" transform="matrix(-1 -1.74846e-07 -1.74846e-07 1 64.9004 488.544)" fill="#4FD2CF"/>
<rect width="14.2736" height="10.6964" rx="2" transform="matrix(-1 -1.74846e-07 -1.74846e-07 1 93.3149 477.135)" fill="#4FD2CF"/>
<rect width="9.9915" height="2.13929" rx="1.06964" transform="matrix(-1 -1.74846e-07 -1.74846e-07 1 91.1738 488.544)" fill="#4FD2CF"/>
<rect width="14.2736" height="10.6964" rx="2" transform="matrix(-1 -1.74846e-07 -1.74846e-07 1 198.409 477.135)" fill="#EEBC00"/>
<rect width="9.9915" height="2.13928" rx="1.06964" transform="matrix(-1 -1.74846e-07 -1.74846e-07 1 196.268 488.544)" fill="#EEBC00"/>
<rect width="14.2736" height="10.6964" rx="2" transform="matrix(-1 -1.74846e-07 -1.74846e-07 1 224.683 477.135)" fill="#EDEDED"/>
<rect width="9.9915" height="2.13928" rx="1.06964" transform="matrix(-1 -1.74846e-07 -1.74846e-07 1 222.542 488.544)" fill="#EDEDED"/>
<rect width="14.2736" height="10.6964" rx="2" transform="matrix(-1 -1.74846e-07 -1.74846e-07 1 250.957 477.135)" fill="#EDEDED"/>
<rect width="9.9915" height="2.13928" rx="1.06964" transform="matrix(-1 -1.74846e-07 -1.74846e-07 1 248.815 488.544)" fill="#EDEDED"/>
<rect width="14.2736" height="10.6964" rx="2" transform="matrix(-1 -1.74846e-07 -1.74846e-07 1 277.23 477.135)" fill="#EEBC00"/>
<rect width="9.9915" height="2.13928" rx="1.06964" transform="matrix(-1 -1.74846e-07 -1.74846e-07 1 275.089 488.544)" fill="#EEBC00"/>
<rect width="14.2736" height="10.6964" rx="2" transform="matrix(-1 -1.74846e-07 -1.74846e-07 1 408.598 477.135)" fill="#EEBC00"/>
<rect width="9.9915" height="2.13928" rx="1.06964" transform="matrix(-1 -1.74846e-07 -1.74846e-07 1 406.457 488.544)" fill="#EEBC00"/>
<rect width="14.2736" height="10.6964" rx="2" transform="matrix(-1 -1.74846e-07 -1.74846e-07 1 434.872 477.135)" fill="#EDEDED"/>
<rect width="9.9915" height="2.13928" rx="1.06964" transform="matrix(-1 -1.74846e-07 -1.74846e-07 1 432.73 488.544)" fill="#EDEDED"/>
<rect width="14.2736" height="10.6964" rx="2" transform="matrix(-1 -1.74846e-07 -1.74846e-07 1 461.145 477.135)" fill="#EDEDED"/>
<rect width="9.9915" height="2.13928" rx="1.06964" transform="matrix(-1 -1.74846e-07 -1.74846e-07 1 459.004 488.544)" fill="#EDEDED"/>
<rect width="14.2736" height="10.6964" rx="2" transform="matrix(-1 -1.74846e-07 -1.74846e-07 1 487.418 477.135)" fill="#EEBC00"/>
<rect width="9.9915" height="2.13928" rx="1.06964" transform="matrix(-1 -1.74846e-07 -1.74846e-07 1 485.277 488.544)" fill="#EEBC00"/>
<rect width="14.2736" height="10.6964" rx="2" transform="matrix(-1 -1.74846e-07 -1.74846e-07 1 592.513 477.135)" fill="#4FD2CF"/>
<rect width="9.9915" height="2.13929" rx="1.06964" transform="matrix(-1 -1.74846e-07 -1.74846e-07 1 590.372 488.544)" fill="#4FD2CF"/>
<rect width="14.2736" height="10.6964" rx="2" transform="matrix(-1 -1.74846e-07 -1.74846e-07 1 618.786 477.135)" fill="#4FD2CF"/>
<rect width="9.9915" height="2.13929" rx="1.06964" transform="matrix(-1 -1.74846e-07 -1.74846e-07 1 616.645 488.544)" fill="#4FD2CF"/>
<rect width="14.2736" height="10.6964" rx="2" transform="matrix(-1 -1.74846e-07 -1.74846e-07 1 645.06 477.135)" fill="#EDEDED"/>
<rect width="9.9915" height="2.13928" rx="1.06964" transform="matrix(-1 -1.74846e-07 -1.74846e-07 1 642.919 488.544)" fill="#EDEDED"/>
<mask id="mask0_620_140811" style="mask-type:alpha" maskUnits="userSpaceOnUse" x="0" y="0" width="671" height="76">
<rect x="0.786133" width="670.214" height="75.3005" fill="#C4C4C4"/>
</mask>
<g mask="url(#mask0_620_140811)">
<path d="M866.852 195.31C866.852 221.35 852.076 246.224 825.203 268.914C798.332 291.601 759.42 312.055 711.293 329.242C615.042 363.615 482.041 384.885 335.107 384.885C188.174 384.885 55.1725 363.615 -41.0779 329.242C-89.2052 312.055 -128.117 291.601 -154.988 268.914C-181.861 246.224 -196.637 221.35 -196.637 195.31C-196.637 169.27 -181.861 144.396 -154.988 121.706C-128.117 99.0189 -89.2052 78.565 -41.0779 61.3778C55.1725 27.0049 188.174 5.73535 335.107 5.73535C482.041 5.73535 615.042 27.0049 711.293 61.3778C759.42 78.565 798.332 99.0189 825.203 121.706C852.076 144.396 866.852 169.27 866.852 195.31Z" fill="url(#paint0_linear_620_140811)" stroke="#8C43FE"/>
</g>
<defs>
<linearGradient id="paint0_linear_620_140811" x1="335.107" y1="5.23535" x2="335.107" y2="58.4595" gradientUnits="userSpaceOnUse">
<stop stop-color="#8C43FE" stop-opacity="0.26"/>
<stop offset="1" stop-color="#8C43FE" stop-opacity="0"/>
</linearGradient>
</defs>
</svg>
